<svg xmlns="http://www.w3.org/2000/svg" xmlns:xlink="http://www.w3.org/1999/xlink">
  <g transform="matrix(.0293 0 0 .0293 0 0)">
    <circle xmlns="http://www.w3.org/2000/svg" cx="256" cy="256" r="256" fill="#D80027" />
    <path xmlns="http://www.w3.org/2000/svg"
      d="M400.7,190H308c5.7-6,9.2-14.1,9.2-23.1c0-18.4-15-33.4-33.4-33.4c-11.6,0-21.8,5.9-27.8,14.9c-6-9-16.2-14.9-27.8-14.9 c-18.4,0-33.4,14.9-33.4,33.4c0,8.9,3.5,17.1,9.2,23.1h-92.7c0,24.6,21.4,44.5,46,44.5h-1.5c0,24.6,19.9,44.5,44.5,44.5 c0,8,2.1,15.4,5.8,21.9l-36.9,36.9l28.3,28.3l40.2-40.2c1.6,0.6,3.2,1,4.9,1.4l-24.3,54.8L256,423l37.7-40.8l-24.3-54.8 c1.7-0.3,3.3-0.8,4.9-1.4l40.2,40.2l28.3-28.3l-36.9-36.9c3.7-6.5,5.8-13.9,5.8-21.9c24.6,0,44.5-19.9,44.5-44.5h-1.5 C379.3,234.5,400.7,214.6,400.7,190z" />
  </g>
  <g transform="matrix(.0293 0 0 .0293 20 0)">
    <path xmlns="http://www.w3.org/2000/svg" fill="#496E2D"
      d="M512,256c0-31.3-5.6-61.3-15.9-89L256,155.8L15.9,167C5.6,194.7,0,224.7,0,256s5.6,61.3,15.9,89L256,356.2 L496.1,345C506.4,317.3,512,287.3,512,256z" />
    <path xmlns="http://www.w3.org/2000/svg" fill="#D80027"
      d="M256,512c110.1,0,203.9-69.5,240.1-167H15.9C52.1,442.5,145.9,512,256,512z" />
    <path xmlns="http://www.w3.org/2000/svg" fill="#F0F0F0"
      d="M15.9,167h480.2C459.9,69.5,366.1,0,256,0S52.1,69.5,15.9,167z" />
  </g>
  <g transform="matrix(.0293 0 0 .0293 41.45 -4.15)">
    <circle fill="#D80027" cx="207" cy="397" r="256" />
    <g>
      <polygon fill="#FFDA44" points="91.1,296.8 113.2,364.8 184.7,364.8 126.9,406.9 149,474.9 91.1,432.9 33.2,474.9 55.4,406.9
		-2.5,364.8 69,364.8 	" />
      <polygon fill="#FFDA44" points="254.5,537.5 237.6,516.7 212.6,526.4 227.1,503.9 210.2,483 236.1,489.9 250.7,467.4 252.1,494.2
		278.1,501.1 253,510.7 	" />
      <polygon fill="#FFDA44" points="288.1,476.5 296.1,450.9 274.2,435.4 301,435 308.9,409.4 317.6,434.8 344.4,434.5 322.9,450.5
		331.5,475.9 309.6,460.4 	" />
      <polygon fill="#FFDA44" points="333.4,328.9 321.6,353 340.8,371.7 314.3,367.9 302.5,391.9 297.9,365.5 271.3,361.7 295.1,349.2
		290.5,322.7 309.7,341.4 	" />
      <polygon fill="#FFDA44" points="255.2,255.9 253.2,282.6 278.1,292.7 252,299.1 250.1,325.9 236,303.1 209.9,309.5 227.2,289
		213,266.3 237.9,276.4 	" />
    </g>
  </g>
  <g transform="matrix(.0293 0 0 .0293 60 0)">
    <path xmlns="http://www.w3.org/2000/svg" fill="#F0F0F0"
      d="M511.9,256c0-31.3-5.6-61.3-15.9-89l-240.1-11.1L15.9,167C5.6,194.7-0.1,224.7-0.1,256s5.6,61.3,15.9,89 l240.1,11.1L496,345C506.3,317.3,511.9,287.3,511.9,256z" />
    <path xmlns="http://www.w3.org/2000/svg" fill="#0052B4"
      d="M255.9,512C366,512,459.9,442.5,496,345H15.9C52,442.5,145.9,512,255.9,512z" />
    <path xmlns="http://www.w3.org/2000/svg" fill="#D80027"
      d="M15.9,167H496C459.9,69.5,366,0,255.9,0S52,69.5,15.9,167z" />
    <path xmlns="http://www.w3.org/2000/svg" fill="#338AF3"
      d="M322.7 178.1L278.2 178.1 285.6 122.4 315.3 100.2 345 122.4 345 167z" />
    <path xmlns="http://www.w3.org/2000/svg" fill="#338AF3"
      d="M189.2 178.1L233.7 178.1 226.3 122.4 196.6 100.2 166.9 122.4 166.9 167z" />
    <path xmlns="http://www.w3.org/2000/svg" fill="#0052B4"
      d="M285.6 178.1L226.3 178.1 226.3 122.4 255.9 100.2 285.6 122.4z" />
    <path xmlns="http://www.w3.org/2000/svg" fill="#F0F0F0"
      d="M166.9,167v122.4c0,29.2,14.1,55.1,35.8,71.3l15.6-3.9l19.7,19.8c5.8,1.2,11.8,1.8,18,1.8 c6.1,0,12.1-0.6,17.9-1.8l22.4-18.7l12.9,2.8c21.7-16.3,35.8-42.2,35.8-71.3V167H166.9z" />
    <path xmlns="http://www.w3.org/2000/svg" fill="#D80027" d="M166.9 167H202.5V202.6H166.9z" />
    <path xmlns="http://www.w3.org/2000/svg" fill="#D80027" d="M238.1 167H273.7V202.6H238.1z" />
    <path xmlns="http://www.w3.org/2000/svg" fill="#D80027" d="M309.4 167H345V202.6H309.4z" />
    <path xmlns="http://www.w3.org/2000/svg" fill="#D80027" d="M202.5 202.6H238.1V238.2H202.5z" />
    <path xmlns="http://www.w3.org/2000/svg" fill="#D80027" d="M273.8 202.6H309.40000000000003V238.2H273.8z" />
    <path xmlns="http://www.w3.org/2000/svg" fill="#D80027" d="M166.9 238.2H202.5V273.8H166.9z" />
    <path xmlns="http://www.w3.org/2000/svg" fill="#D80027" d="M202.5 273.8H238.1V309.40000000000003H202.5z" />
    <path xmlns="http://www.w3.org/2000/svg" fill="#D80027" d="M238.1 238.2H273.7V273.8H238.1z" />
    <path xmlns="http://www.w3.org/2000/svg" fill="#D80027" d="M309.4 238.2H345V273.8H309.4z" />
    <path xmlns="http://www.w3.org/2000/svg" fill="#D80027"
      d="M273.8 273.8H309.40000000000003V309.40000000000003H273.8z" />
    <path xmlns="http://www.w3.org/2000/svg" fill="#D80027" d="M238.1 309.4H273.7V345H238.1z" />
    <path xmlns="http://www.w3.org/2000/svg" fill="#D80027"
      d="M202.5,309.4h-33.3c3.1,13.2,9.1,25.4,17.3,35.6h16V309.4z" />
    <path xmlns="http://www.w3.org/2000/svg" fill="#D80027" d="M309.4,345h16c8.2-10.3,14.2-22.4,17.3-35.6h-33.3V345z" />
    <path xmlns="http://www.w3.org/2000/svg" fill="#D80027"
      d="M202.5,345v15.5c10.4,7.8,22.5,13.4,35.6,16.1V345L202.5,345L202.5,345z" />
    <path xmlns="http://www.w3.org/2000/svg" fill="#D80027"
      d="M273.8,345v31.6c13.2-2.7,25.3-8.3,35.6-16.1V345H273.8z" />
  </g>
  <g transform="matrix(.0293 0 0 .0293 80 0)">
    <circle xmlns="http://www.w3.org/2000/svg" cx="255.9" cy="256" r="256" fill="#F0F0F0" />
    <path xmlns="http://www.w3.org/2000/svg" fill="#D80027"
      d="M233.7,256c0,0-158.6,181.1-158.8,181c46.3,46.3,110.3,75,181,75c141.4,0,256-114.6,256-256H233.7z" />
    <path xmlns="http://www.w3.org/2000/svg" fill="#0052B4"
      d="M74.9,75C-25,175-25,337,74.9,437c41.3-41.3,81-81,181-181L74.9,75z" />
  </g>
  <g transform="matrix(.0293 0 0 .0293 100 0)">
    <circle xmlns="http://www.w3.org/2000/svg" cx="256" cy="256" r="256" fill="#F0F0F0" />
    <path xmlns="http://www.w3.org/2000/svg" fill="#D80027"
      d="M200.3,222.6h309.5C493.5,97,386.1,0,256,0c-19.1,0-37.7,2.1-55.7,6.1L200.3,222.6L200.3,222.6L200.3,222.6z" />
    <path xmlns="http://www.w3.org/2000/svg" fill="#D80027"
      d="M133.6,222.6V31.1C63.3,69.5,13,139.8,2.2,222.6L133.6,222.6L133.6,222.6z" />
    <path xmlns="http://www.w3.org/2000/svg" fill="#D80027"
      d="M133.6,289.4H2.2C13,372.2,63.3,442.5,133.6,480.9L133.6,289.4L133.6,289.4z" />
    <path xmlns="http://www.w3.org/2000/svg" fill="#D80027"
      d="M200.3,289.4v216.5c17.9,4,36.5,6.1,55.7,6.1c130.1,0,237.5-97,253.8-222.6L200.3,289.4L200.3,289.4z" />
  </g>
  <g transform="matrix(.0293 0 0 .0293 120 0)">
    <path xmlns="http://www.w3.org/2000/svg"
      d="M0,256c0,31.3,5.6,61.3,15.9,89L256,356.2L496.1,345c10.3-27.7,15.9-57.7,15.9-89s-5.6-61.3-15.9-89L256,155.8L15.9,167 C5.6,194.7,0,224.7,0,256z" />
    <path xmlns="http://www.w3.org/2000/svg" fill="#0052B4"
      d="M256,0C145.9,0,52.1,69.5,15.9,167h480.2C459.9,69.5,366.1,0,256,0z" />
    <path xmlns="http://www.w3.org/2000/svg" fill="#F0F0F0"
      d="M496.1,345H15.9c36.2,97.5,130,167,240.1,167S459.9,442.5,496.1,345z" />
  </g>
  <g transform="matrix(.0293 0 0 .0293 0 20)">
    <circle xmlns="http://www.w3.org/2000/svg" cx="255.9" cy="256" r="256" fill="#F0F0F0" />
    <path xmlns="http://www.w3.org/2000/svg" fill="#0052B4"
      d="M509.8,222.6H200.3h0V6.1c-23.7,5.2-46.1,13.7-66.8,25v191.5v0H2.1c-1.4,10.9-2.2,22.1-2.2,33.4 c0,11.3,0.7,22.5,2.2,33.4h131.4h0v191.5c20.7,11.3,43.1,19.8,66.8,25V289.4v0h309.5c1.4-10.9,2.2-22.1,2.2-33.4 S511.2,233.5,509.8,222.6z" />
  </g>
  <g transform="matrix(.0293 0 0 .0293 20 20)">
    <circle xmlns="http://www.w3.org/2000/svg" cx="256" cy="256" r="256" fill="#F0F0F0" />
    <path xmlns="http://www.w3.org/2000/svg" fill="#D80027"
      d="M512,256c0-110.071-69.472-203.906-166.957-240.077v480.155C442.528,459.906,512,366.071,512,256z" />
    <path xmlns="http://www.w3.org/2000/svg" fill="#0052B4"
      d="M0,256c0,110.071,69.473,203.906,166.957,240.077V15.923C69.473,52.094,0,145.929,0,256z" />
  </g>
  <g transform="matrix(.0293 0 0 .0293 40 20)">
    <path xmlns="http://www.w3.org/2000/svg" fill="#FFDA44"
      d="M15.923,345.043C52.094,442.527,145.929,512,256,512s203.906-69.473,240.077-166.957L256,322.783 L15.923,345.043z" />
    <path xmlns="http://www.w3.org/2000/svg"
      d="M256,0C145.929,0,52.094,69.472,15.923,166.957L256,189.217l240.077-22.261C459.906,69.472,366.071,0,256,0z" />
    <path xmlns="http://www.w3.org/2000/svg" fill="#D80027"
      d="M15.923,166.957C5.633,194.69,0,224.686,0,256s5.633,61.31,15.923,89.043h480.155 C506.368,317.31,512,287.314,512,256s-5.632-61.31-15.923-89.043H15.923z" />
  </g>
  <g transform="matrix(.0293 0 0 .0293 60 20)">
    <circle xmlns="http://www.w3.org/2000/svg" cx="256" cy="256" r="256" fill="#F0F0F0" />
    <path xmlns="http://www.w3.org/2000/svg" fill="#338AF3"
      d="M256,189.2h247.2c-6.4-23.8-16.2-46.3-28.8-66.8H256V189.2z" />
    <path xmlns="http://www.w3.org/2000/svg" fill="#338AF3"
      d="M96.6,456.3h318.7c23.4-18.6,43.4-41.2,59.1-66.8H37.6C53.2,415.1,73.3,437.7,96.6,456.3z" />
    <path xmlns="http://www.w3.org/2000/svg" fill="#338AF3" d="M89,61.9c-20.1,17.3-37.5,37.7-51.5,60.5H89V61.9z" />
    <path xmlns="http://www.w3.org/2000/svg" fill="#338AF3"
      d="M256,256c0-26.1,0-47.9,0-66.8H155.8V256H89v-66.8H8.8C3.1,210.5,0,232.9,0,256s3.1,45.5,8.8,66.8h494.4 c5.7-21.3,8.8-43.7,8.8-66.8H256z" />
    <path xmlns="http://www.w3.org/2000/svg" fill="#338AF3"
      d="M256,0c-35.5,0-69.4,7.3-100.2,20.3v102.1H256c0-23.3,0-43.1,0-66.8h159.4C371.6,20.8,316.2,0,256,0z" />
  </g>
  <g transform="matrix(.0293 0 0 .0293 80 20)">
    <circle xmlns="http://www.w3.org/2000/svg" cx="256" cy="256" r="256" fill="#F0F0F0" />
    <path xmlns="http://www.w3.org/2000/svg" fill="#D80027"
      d="M256,0C145.9,0,52.1,69.5,15.9,167h480.2C459.9,69.5,366.1,0,256,0z" />
    <path xmlns="http://www.w3.org/2000/svg" fill="#6DA544"
      d="M256,512c110.1,0,203.9-69.5,240.1-167H15.9C52.1,442.5,145.9,512,256,512z" />
  </g>
  <g transform="matrix(.0293 0 0 .0293 100 20)">
    <circle xmlns="http://www.w3.org/2000/svg" cx="256" cy="256" r="256" fill="#F0F0F0" />
    <path xmlns="http://www.w3.org/2000/svg" fill="#D80027"
      d="M512,256c0-110.071-69.472-203.906-166.957-240.077v480.155C442.528,459.906,512,366.071,512,256z" />
    <path xmlns="http://www.w3.org/2000/svg" fill="#6DA544"
      d="M0,256c0,110.071,69.472,203.906,166.957,240.077V15.923C69.472,52.094,0,145.929,0,256z" />
  </g>
  <g transform="matrix(.0293 0 0 .0293 120 20)">
    <circle xmlns="http://www.w3.org/2000/svg" cx="256" cy="256" r="256" fill="#F0F0F0" />
    <circle xmlns="http://www.w3.org/2000/svg" cx="256" cy="256" r="111.304" fill="#D80027" />
  </g>
  <g transform="matrix(.0293 0 0 .0293 0 40)">
    <circle xmlns="http://www.w3.org/2000/svg" cx="256" cy="256" r="256" fill="#F0F0F0" />
    <path xmlns="http://www.w3.org/2000/svg" fill="#A2001D"
      d="M256,0C137.7,0,38.2,80.2,8.8,189.2h494.4C473.8,80.2,374.3,0,256,0z" />
    <path xmlns="http://www.w3.org/2000/svg" fill="#A2001D"
      d="M256,512c118.3,0,217.8-80.2,247.2-189.2H8.8C38.2,431.8,137.7,512,256,512z" />
  </g>
  <g transform="matrix(.0293 0 0 .0293 20 40)">
    <path xmlns="http://www.w3.org/2000/svg" fill="#6DA544"
      d="M496.1,345c10.3-27.7,15.9-57.7,15.9-89s-5.6-61.3-15.9-89L256,144.7L15.9,167C5.6,194.7,0,224.7,0,256 s5.6,61.3,15.9,89L256,367.3L496.1,345z" />
    <path xmlns="http://www.w3.org/2000/svg" fill="#FFDA44"
      d="M496.1,167C459.9,69.5,366.1,0,256,0S52.1,69.5,15.9,167H496.1z" />
    <path xmlns="http://www.w3.org/2000/svg" fill="#D80027"
      d="M256,512c110.1,0,203.9-69.5,240.1-167H15.9C52.1,442.5,145.9,512,256,512z" />
  </g>
  <g transform="matrix(.0293 0 0 .0293 40 40)">
    <circle xmlns="http://www.w3.org/2000/svg" cx="256" cy="256" r="256" fill="#F0F0F0" />
    <path xmlns="http://www.w3.org/2000/svg" fill="#A2001D"
      d="M256,0C145.9,0,52.1,69.5,15.9,167h480.2C459.9,69.5,366.1,0,256,0z" />
    <path xmlns="http://www.w3.org/2000/svg" fill="#0052B4"
      d="M256,512c110.1,0,203.9-69.5,240.1-167H15.9C52.1,442.5,145.9,512,256,512z" />
  </g>
  <g transform="matrix(.0293 0 0 .0293 60 40)">
    <circle xmlns="http://www.w3.org/2000/svg" cx="255.5" cy="256" r="256" fill="#F0F0F0" />
    <path xmlns="http://www.w3.org/2000/svg" fill="#D80027" d="M8.3,322.8c14.8,55,47.5,102.6,91.4,136.3V322.8H8.3z" />
    <path xmlns="http://www.w3.org/2000/svg" fill="#D80027"
      d="M233.2,511c7.3,0.6,14.8,1,22.3,1c118.3,0,217.8-80.2,247.2-189.2H233.2V511z" />
    <path xmlns="http://www.w3.org/2000/svg" fill="#D80027"
      d="M502.7,189.2C473.3,80.2,373.8,0,255.5,0c-7.5,0-14.9,0.3-22.3,1v188.2H502.7z" />
    <path xmlns="http://www.w3.org/2000/svg" fill="#D80027" d="M99.7,52.9C55.8,86.6,23.1,134.3,8.3,189.2h91.4V52.9z" />
    <path xmlns="http://www.w3.org/2000/svg" fill="#0052B4"
      d="M509.3,222.6H199.8h0V6.1c-23.7,5.2-46.1,13.7-66.8,25v191.5v0H1.7c-1.4,10.9-2.2,22.1-2.2,33.4 c0,11.3,0.7,22.5,2.2,33.4h131.4h0v191.5c20.7,11.3,43.1,19.8,66.8,25V289.4v0h309.5c1.4-10.9,2.2-22.1,2.2-33.4 S510.8,233.5,509.3,222.6z" />
  </g>
  <g transform="matrix(.0293 0 0 .0293 80 40)">
    <ellipse xmlns="http://www.w3.org/2000/svg" cx="255.8" cy="256" fill="#F0F0F0" rx="255.8" ry="256" />
    <path xmlns="http://www.w3.org/2000/svg" fill="#D80027" d="M511.5,256c0,141.4-114.5,256-255.8,256S0,397.4,0,256" />
  </g>
  <g transform="matrix(.0293 0 0 .0293 100 40)">
    <path xmlns="http://www.w3.org/2000/svg" fill="#6DA544"
      d="M0,256c0,110.07,69.472,203.905,166.955,240.076l22.262-240.077L166.955,15.923 C69.472,52.095,0,145.929,0,256z" />
    <path xmlns="http://www.w3.org/2000/svg" fill="#D80027"
      d="M512,256C512,114.616,397.384,0,256,0c-31.314,0-61.311,5.633-89.045,15.923v480.154 C194.689,506.368,224.686,512,256,512C397.384,512,512,397.384,512,256z" />
    <circle xmlns="http://www.w3.org/2000/svg" cx="166.957" cy="256" r="89.043" fill="#FFDA44" />
    <path xmlns="http://www.w3.org/2000/svg" fill="#D80027"
      d="M116.87,211.478v55.652c0,27.662,22.424,50.087,50.087,50.087s50.087-22.424,50.087-50.087v-55.652 H116.87z" />
    <path xmlns="http://www.w3.org/2000/svg" fill="#F0F0F0"
      d="M166.957,283.826c-9.206,0-16.696-7.49-16.696-16.696V244.87h33.391v22.261 C183.652,276.336,176.162,283.826,166.957,283.826z" />
  </g>
  <g transform="matrix(.0293 0 0 .0293 120 40)">
    <path xmlns="http://www.w3.org/2000/svg" fill="#FFDA44"
      d="M256,0c-31.3,0-61.3,5.6-89,15.9L155.8,256L167,496.1c27.7,10.3,57.7,15.9,89,15.9s61.3-5.6,89-15.9L356.2,256 L345,15.9C317.3,5.6,287.3,0,256,0z" />
    <path xmlns="http://www.w3.org/2000/svg" fill="#D80027"
      d="M512,256c0-110.1-69.5-203.9-167-240.1v480.2C442.5,459.9,512,366.1,512,256z" />
    <path xmlns="http://www.w3.org/2000/svg" fill="#0052B4"
      d="M167,496.1V15.9C69.5,52.1,0,145.9,0,256S69.5,459.9,167,496.1z" />
  </g>
  <g transform="matrix(.0293 0 0 .0293 0 60)">
    <circle xmlns="http://www.w3.org/2000/svg" cx="256" cy="256" r="256" fill="#F0F0F0" />
    <path xmlns="http://www.w3.org/2000/svg" fill="#0052B4"
      d="M496.077,345.043C506.368,317.31,512,287.314,512,256s-5.632-61.31-15.923-89.043H15.923 C5.633,194.69,0,224.686,0,256s5.633,61.31,15.923,89.043L256,367.304L496.077,345.043z" />
    <path xmlns="http://www.w3.org/2000/svg" fill="#D80027"
      d="M256,512c110.071,0,203.906-69.472,240.077-166.957H15.923C52.094,442.528,145.929,512,256,512z" />
  </g>
  <g transform="matrix(.0293 0 0 .0293 20 60)">
    <circle xmlns="http://www.w3.org/2000/svg" cx="256" cy="256" r="256" fill="#F0F0F0" />
    <path xmlns="http://www.w3.org/2000/svg" fill="#0052B4"
      d="M256,0C114.6,0,0,114.6,0,256c0,31.3,5.6,61.3,15.9,89h480.2c10.3-27.7,15.9-57.7,15.9-89 C512,114.6,397.4,0,256,0z" />
    <path xmlns="http://www.w3.org/2000/svg" fill="#D80027"
      d="M256,0C145.9,0,52.1,69.5,15.9,167h480.2C459.9,69.5,366.1,0,256,0z" />
    <path xmlns="http://www.w3.org/2000/svg" fill="#D80027"
      d="M66.2,144.7v127.7c0,72.6,94.9,94.9,94.9,94.9S256,345,256,272.4V144.7H66.2z" />
    <path xmlns="http://www.w3.org/2000/svg" fill="#FFDA44"
      d="M105.4 167L216.8 167 216.8 122.4 194.5 133.6 161.1 100.2 127.7 133.6 105.4 122.4z" />
    <path xmlns="http://www.w3.org/2000/svg" fill="#FFDA44"
      d="M233.7 290.2L161.4 217.8 89 290.2 112.7 313.8 161.4 265.1 210.1 313.8z" />
    <path xmlns="http://www.w3.org/2000/svg" fill="#F0F0F0"
      d="M233.7,222.6H200c1.9-3.3,3-7.1,3-11.1c0-12.3-10-22.3-22.3-22.3c-8.5,0-15.9,4.8-19.6,11.8 c-3.8-7-11.1-11.8-19.6-11.8c-12.3,0-22.3,10-22.3,22.3c0,4.1,1.1,7.9,3,11.1H89c0,12.3,10.7,22.3,23,22.3h-0.7 c0,12.3,10,22.3,22.3,22.3c0,10.9,7.8,19.9,18.1,21.9l-17.5,39.6c8.4,3.4,17.6,5.3,27.2,5.3s18.8-1.9,27.2-5.3L171.1,289 c10.3-1.9,18.1-11,18.1-21.9c12.3,0,22.3-10,22.3-22.3h-0.7C223,244.9,233.7,234.9,233.7,222.6z" />
  </g>
  <g transform="matrix(.0293 0 0 .0293 40 60)">
    <circle xmlns="http://www.w3.org/2000/svg" cx="256" cy="256" r="256" fill="#F0F0F0" />
    <path xmlns="http://www.w3.org/2000/svg" fill="#0052B4"
      d="M256,512c141.4,0,256-114.6,256-256c0-31.3-5.6-61.3-15.9-89H15.9C5.6,194.7,0,224.7,0,256 C0,397.4,114.6,512,256,512z" />
    <path xmlns="http://www.w3.org/2000/svg" fill="#D80027"
      d="M256,512c110.1,0,203.9-69.5,240.1-167H15.9C52.1,442.5,145.9,512,256,512z" />
    <path xmlns="http://www.w3.org/2000/svg" fill="#F0F0F0"
      d="M66.2,144.7v127.7c0,72.6,94.9,94.9,94.9,94.9S256,345,256,272.4V144.7H66.2z" />
    <path xmlns="http://www.w3.org/2000/svg" fill="#D80027"
      d="M88.5,144.7v127.7c0,8.5,1.9,16.6,5.6,24.1c37.2,0,92.9,0,134,0c3.8-7.5,5.6-15.6,5.6-24.1V144.7H88.5z" />
    <path xmlns="http://www.w3.org/2000/svg" fill="#F0F0F0"
      d="M205.6 233.7L172.2 233.7 172.2 211.5 194.5 211.5 194.5 189.2 172.2 189.2 172.2 167 150 167 150 189.2 127.7 189.2 127.7 211.5 150 211.5 150 233.7 116.6 233.7 116.6 256 150 256 150 278.3 172.2 278.3 172.2 256 205.6 256z" />
    <path xmlns="http://www.w3.org/2000/svg" fill="#0052B4"
      d="M124.5,327.6c14.3,9,29.1,14.2,36.6,16.6c7.5-2.3,22.3-7.6,36.6-16.6c14.5-9.1,24.6-19.5,30.4-31.1 c-6.4-4.5-14.1-7.1-22.5-7.1c-3,0-6,0.4-8.9,1c-6-13.7-19.7-23.3-35.7-23.3s-29.6,9.6-35.7,23.3c-2.8-0.7-5.8-1-8.9-1 c-8.4,0-16.1,2.6-22.5,7.1C99.9,308.1,110,318.5,124.5,327.6z" />
  </g>
  <g transform="matrix(.0293 0 0 .0293 60 60)">
    <circle xmlns="http://www.w3.org/2000/svg" cx="256" cy="256" r="256" fill="#F0F0F0" />
    <path xmlns="http://www.w3.org/2000/svg" fill="#0052B4"
      d="M496.1,167H222.6v-66.8H89V167H15.9C5.6,194.7,0,224.7,0,256s5.6,61.3,15.9,89L256,367.3L496.1,345 c10.3-27.7,15.9-57.7,15.9-89S506.4,194.7,496.1,167z" />
    <path xmlns="http://www.w3.org/2000/svg" fill="#D80027"
      d="M256,512c110.1,0,203.9-69.5,240.1-167H15.9C52.1,442.5,145.9,512,256,512z" />
    <path xmlns="http://www.w3.org/2000/svg" fill="#F0F0F0"
      d="M89,167v22.3c0,51.1,66.8,66.8,66.8,66.8s66.8-15.7,66.8-66.8V167l-22.3,22.3l-44.5-33.4l-44.5,33.4L89,167z" />
  </g>
  <g transform="matrix(.0293 0 0 .0293 80 60)">
    <circle xmlns="http://www.w3.org/2000/svg" cx="256" cy="256" r="256" fill="#F0F0F0" />
    <path xmlns="http://www.w3.org/2000/svg" fill="#D80027"
      d="M345.043,256c0,22.261-39.866,77.913-89.043,77.913S166.957,278.261,166.957,256 c0-49.178,39.866-89.043,89.043-89.043S345.043,206.822,345.043,256z" />
    <path xmlns="http://www.w3.org/2000/svg" fill="#0052B4"
      d="M345.043,256c0,49.178-39.866,89.043-89.043,89.043S166.957,305.178,166.957,256" />
    <path xmlns="http://www.w3.org/2000/svg" d="M353.427 319.639H386.81800000000004V341.90000000000003H353.427z"
      transform="rotate(-45.001 370.12 330.776)" />
    <path xmlns="http://www.w3.org/2000/svg" d="M314.07 358.994H347.461V381.25500000000005H314.07z"
      transform="rotate(-45.001 330.763 370.13)" />
    <path xmlns="http://www.w3.org/2000/svg" d="M400.656 366.851H434.047V389.112H400.656z"
      transform="rotate(-45.001 417.35 377.989)" />
    <path xmlns="http://www.w3.org/2000/svg" d="M361.299 406.213H394.69V428.47400000000005H361.299z"
      transform="rotate(-45.001 377.992 417.35)" />
    <path xmlns="http://www.w3.org/2000/svg" d="M377.04 343.247H410.43100000000004V365.50800000000004H377.04z"
      transform="rotate(-45.001 393.733 354.384)" />
    <path xmlns="http://www.w3.org/2000/svg" d="M337.694 382.602H371.08500000000004V404.863H337.694z"
      transform="rotate(-45.001 354.387 393.738)" />
    <path xmlns="http://www.w3.org/2000/svg" d="M329.544 126.805H418.587V149.066H329.544z"
      transform="rotate(-134.999 374.067 137.936)" />
    <path xmlns="http://www.w3.org/2000/svg" d="M314.081 130.749H347.47200000000004V153.009H314.081z"
      transform="rotate(-134.999 330.778 141.88)" />
    <path xmlns="http://www.w3.org/2000/svg" d="M353.427 170.098H386.81800000000004V192.358H353.427z"
      transform="rotate(-134.999 370.124 181.23)" />
    <path xmlns="http://www.w3.org/2000/svg" d="M361.282 83.526H394.673V105.78699999999999H361.282z"
      transform="rotate(-134.999 377.98 94.658)" />
    <path xmlns="http://www.w3.org/2000/svg" d="M400.651 122.879H434.04200000000003V145.14000000000001H400.651z"
      transform="rotate(-134.999 417.348 134.01)" />
    <path xmlns="http://www.w3.org/2000/svg" d="M69.81 386.542H158.853V408.803H69.81z"
      transform="rotate(45.001 114.336 397.673)" />
    <path xmlns="http://www.w3.org/2000/svg" d="M140.919 382.6H174.31V404.86H140.919z"
      transform="rotate(45.001 157.62 393.73)" />
    <path xmlns="http://www.w3.org/2000/svg" d="M101.569 343.252H134.96V365.51300000000003H101.569z"
      transform="rotate(45.001 118.269 354.382)" />
    <path xmlns="http://www.w3.org/2000/svg" d="M117.031 339.316H206.074V361.577H117.031z"
      transform="rotate(45.001 161.557 350.446)" />
    <path xmlns="http://www.w3.org/2000/svg" d="M69.81 103.201H158.853V125.46199999999999H69.81z"
      transform="rotate(134.999 114.332 114.331)" />
    <path xmlns="http://www.w3.org/2000/svg" d="M93.412 126.806H182.455V149.067H93.412z"
      transform="rotate(134.999 137.934 137.937)" />
    <path xmlns="http://www.w3.org/2000/svg" d="M117.038 150.428H206.08100000000002V172.688H117.038z"
      transform="rotate(134.999 161.56 161.558)" />
  </g>
  <g transform="matrix(.0293 0 0 .0293 100 60)">
    <path xmlns="http://www.w3.org/2000/svg" fill="#FFDA44"
      d="M0,256c0,31.314,5.633,61.31,15.923,89.043L256,367.304l240.077-22.261 C506.367,317.31,512,287.314,512,256s-5.633-61.31-15.923-89.043L256,144.696L15.923,166.957C5.633,194.69,0,224.686,0,256z" />
    <path xmlns="http://www.w3.org/2000/svg" fill="#D80027"
      d="M496.077,166.957C459.906,69.473,366.071,0,256,0S52.094,69.473,15.923,166.957H496.077z" />
    <path xmlns="http://www.w3.org/2000/svg" fill="#D80027"
      d="M15.923,345.043C52.094,442.527,145.929,512,256,512s203.906-69.473,240.077-166.957H15.923z" />
  </g>
  <g transform="matrix(.0293 0 0 .0293 120 60)">
    <circle xmlns="http://www.w3.org/2000/svg" cx="256" cy="256" r="256" fill="#FFDA44" />
    <path xmlns="http://www.w3.org/2000/svg" fill="#0052B4"
      d="M200.3,222.6h309.5C493.5,97,386.1,0,256,0c-19.1,0-37.7,2.1-55.7,6.1L200.3,222.6L200.3,222.6L200.3,222.6z" />
    <path xmlns="http://www.w3.org/2000/svg" fill="#0052B4"
      d="M133.6,222.6V31.1C63.3,69.5,12.9,139.8,2.2,222.6L133.6,222.6L133.6,222.6z" />
    <path xmlns="http://www.w3.org/2000/svg" fill="#0052B4"
      d="M133.6,289.4H2.2c10.8,82.8,61.1,153.1,131.4,191.5L133.6,289.4L133.6,289.4z" />
    <path xmlns="http://www.w3.org/2000/svg" fill="#0052B4"
      d="M200.3,289.4v216.5c17.9,4,36.5,6.1,55.7,6.1c130.1,0,237.5-97,253.8-222.6L200.3,289.4L200.3,289.4z" />
  </g>
  <g transform="matrix(.0293 0 0 .0293 0 80)">
    <path xmlns="http://www.w3.org/2000/svg" fill="#0052B4"
      d="M-0.1,255.9c0,34,6.6,66.4,18.7,96.1h474.7c12-29.7,18.7-62.1,18.7-96.1c0-28.7-4.7-56.2-13.4-81.9H13.3 C4.6,199.7-0.1,227.3-0.1,255.9z" />
    <path xmlns="http://www.w3.org/2000/svg" fill="#FFFFFF"
      d="M13.3,174h485.2c-9.6-28.4-24-54.5-42.3-77.5H55.6C37.3,119.5,22.9,145.6,13.3,174z" />
    <path xmlns="http://www.w3.org/2000/svg" fill="#FFFFFF"
      d="M67.7,429.5h376.4c20.7-22.5,37.5-48.7,49.2-77.5H18.6C30.2,380.8,47,407,67.7,429.5z" />
    <path xmlns="http://www.w3.org/2000/svg" fill="#D80027"
      d="M456.1,96.5C409.2,37.7,337,0,255.9,0S102.6,37.7,55.7,96.5H456.1z" />
    <path xmlns="http://www.w3.org/2000/svg" fill="#D80027"
      d="M67.7,429.5c46.8,50.7,113.8,82.5,188.2,82.5s141.4-31.8,188.2-82.5H67.7z" />
  </g>
  <g transform="matrix(.0293 0 0 .0293 20 80)">
    <circle xmlns="http://www.w3.org/2000/svg" cx="256" cy="256" r="256" fill="#D80027" />
    <path xmlns="http://www.w3.org/2000/svg" fill="#F0F0F0"
      d="M245.518 209.186L266.523 238.131 300.54 227.101 279.502 256.021 300.504 284.965 266.499 273.893 245.462 302.813 245.484 267.052 211.478 255.98 245.496 244.95z" />
    <path xmlns="http://www.w3.org/2000/svg" fill="#F0F0F0"
      d="M188.194,328.348c-39.956,0-72.348-32.392-72.348-72.348s32.392-72.348,72.348-72.348 c12.458,0,24.18,3.151,34.414,8.696c-16.055-15.702-38.012-25.392-62.24-25.392c-49.178,0-89.043,39.866-89.043,89.043 s39.866,89.043,89.043,89.043c24.23,0,46.186-9.691,62.24-25.392C212.374,325.197,200.652,328.348,188.194,328.348z" />
  </g>
  <g transform="matrix(.0293 0 0 .0293 40 80)">
    <circle xmlns="http://www.w3.org/2000/svg" cx="256" cy="256" r="256" fill="#FFDA44" />
    <path xmlns="http://www.w3.org/2000/svg" fill="#338AF3" d="M0,256C0,114.616,114.616,0,256,0s256,114.616,256,256" />
  </g>
  <g transform="matrix(.0293 0 0 .0293 60 80)">
    <circle xmlns="http://www.w3.org/2000/svg" cx="256" cy="256" r="256" fill="#F0F0F0" />
    <path xmlns="http://www.w3.org/2000/svg" fill="#D80027"
      d="M244.87,256H512c0-23.106-3.08-45.49-8.819-66.783H244.87V256z" />
    <path xmlns="http://www.w3.org/2000/svg" fill="#D80027"
      d="M244.87,122.435h229.556c-15.671-25.572-35.708-48.175-59.07-66.783H244.87V122.435z" />
    <path xmlns="http://www.w3.org/2000/svg" fill="#D80027"
      d="M256,512c60.249,0,115.626-20.824,159.356-55.652H96.644C140.374,491.176,195.751,512,256,512z" />
    <path xmlns="http://www.w3.org/2000/svg" fill="#D80027"
      d="M37.574,389.565h436.852c12.581-20.529,22.338-42.969,28.755-66.783H8.819 C15.236,346.596,24.993,369.036,37.574,389.565z" />
    <path xmlns="http://www.w3.org/2000/svg" fill="#0052B4"
      d="M118.584,39.978h23.329l-21.7,15.765l8.289,25.509l-21.699-15.765L85.104,81.252l7.16-22.037 C73.158,75.13,56.412,93.776,42.612,114.552h7.475l-13.813,10.035c-2.152,3.59-4.216,7.237-6.194,10.938l6.596,20.301l-12.306-8.941 c-3.059,6.481-5.857,13.108-8.372,19.873l7.267,22.368h26.822l-21.7,15.765l8.289,25.509l-21.699-15.765l-12.998,9.444 C0.678,234.537,0,245.189,0,256h256c0-141.384,0-158.052,0-256C205.428,0,158.285,14.67,118.584,39.978z M128.502,230.4 l-21.699-15.765L85.104,230.4l8.289-25.509l-21.7-15.765h26.822l8.288-25.509l8.288,25.509h26.822l-21.7,15.765L128.502,230.4z M120.213,130.317l8.289,25.509l-21.699-15.765l-21.699,15.765l8.289-25.509l-21.7-15.765h26.822l8.288-25.509l8.288,25.509h26.822 L120.213,130.317z M220.328,230.4l-21.699-15.765L176.93,230.4l8.289-25.509l-21.7-15.765h26.822l8.288-25.509l8.288,25.509h26.822 l-21.7,15.765L220.328,230.4z M212.039,130.317l8.289,25.509l-21.699-15.765l-21.699,15.765l8.289-25.509l-21.7-15.765h26.822 l8.288-25.509l8.288,25.509h26.822L212.039,130.317z M212.039,55.743l8.289,25.509l-21.699-15.765L176.93,81.252l8.289-25.509 l-21.7-15.765h26.822l8.288-25.509l8.288,25.509h26.822L212.039,55.743z" />
  </g>
  <g transform="matrix(.0293 0 0 .0293 80 80)">
    <circle xmlns="http://www.w3.org/2000/svg" cx="256" cy="256" r="256" fill="#D80027" />
    <path xmlns="http://www.w3.org/2000/svg" fill="#FFDA44"
      d="M256 133.6L283.6 218.6 373 218.6 300.7 271.1 328.3 356.2 256 303.6 183.7 356.2 211.3 271.1 139 218.6 228.4 218.6z" />
  </g>
  <g transform="matrix(.0586 0 0 .0586 100 80)">
    <style type="text/css">
      .st0 {
        clip-path: url(#SVGID_2_);
      }
    </style>
    <g>
      <clipPath id="SVGID_2_">
        <circle id="SVGID_1_" cx="127.9" cy="128" r="127.9" style="overflow:visible;" />
      </clipPath>
      <g class="st0">
        <g>
          <g>
            <path fill="#EC1C24" d="M258.7,0.3c0,58.1,0,116.2,0,174.3c-0.6-0.2-1.2-0.1-1.8-0.1c-64.6,0-129.2,0-193.7,0
					c0-0.6-0.1-1.1-0.1-1.7c0-56.8,0-113.7,0-170.5c0-0.6,0-1.3,0-1.9c0.5,0,1.1,0,1.7,0c64.1,0,128.2,0,192.3,0
					C257.6,0.4,258.1,0.3,258.7,0.3z" />
            <path fill="#00A551" d="M63.1,174.5c64.6,0,129.2,0,193.7,0c0.6,0,1.2-0.1,1.8,0.1c0,27.5,0,55.1,0,82.6c0,1-0.2,1.2-1.2,1.2
					c-64.8,0-129.6,0-194.4,0c0-0.3,0-0.7,0-1c0-27.2,0-54.5,0-81.7C63.1,175.3,63.1,174.9,63.1,174.5z" />
            <path fill="#FEFCFB"
              d="M63.1,174.5c0,0.4-0.1,0.8-0.1,1.2c0,27.2,0,54.5,0,81.7c0,0.3,0,0.7,0,1c-21,0-42.1,0-63.1,0
					c0-0.4,0-0.9,0-1.3C0,171.9,0,86.6,0,1.3C0,0.3,0.2,0,1.3,0c85.4,0,170.8,0,256.3,0c0.4,0,0.9-0.3,1.2,0.2c-0.6,0-1.1,0-1.7,0
					c-64.1,0-128.2,0-192.3,0c-0.6,0-1.1,0-1.7,0c0,0.7,0,1.3,0,1.9c0,56.8,0,113.7,0,170.5C63.1,173.4,63.1,173.9,63.1,174.5z
					 M53.5,112.3c0-1.2,0-2.4,0-3.6c0-0.6,0.2-1.2-0.8-1.2c-1,0-0.9,0.6-0.9,1.3c0,0.8,0.4,1.8-1.1,1.8c-0.4,0-0.3,0.5-0.3,0.7
					c0,0.7,0,1.4,0,2.1c0,0.4-0.1,0.7-0.6,0.6c-1.4-0.3-1.6,0.5-1.5,1.6c0.1,0.6,0,1.1,0,1.7c0.1,0.9-0.2,1.3-1.2,1.3
					c-1.2,0-1.7-0.3-1.5-1.5c0.1-0.5,0-1,0-1.4c0.1-1-0.1-1.6-1.3-1.4c-0.6,0.1-0.9-0.2-0.8-0.8c0-0.4,0-0.8,0-1.2
					c0.1-0.6-0.1-1-0.9-0.9c-0.7,0.1-0.9-0.3-0.9-0.9c0-0.6,0-1.3,0-1.9c0-0.4-0.1-0.7-0.6-0.7c-1.7,0.3-1.6-0.8-1.5-1.9
					c0-0.5,0-1,0-1.4c0-0.3-0.1-0.6-0.5-0.6c-0.9,0.1-0.9-0.5-0.9-1.2c0-0.6,0-1.3,0-1.9c0-0.3,0-0.8-0.5-0.7
					c-0.9,0.1-0.9-0.4-0.8-1c0-0.7,0-1.5,0-2.2c0-0.4-0.1-0.7-0.5-0.6c-1.5,0.3-1.6-0.6-1.5-1.7c0-0.8,0-1.6,0-2.3
					c0-0.5,0.2-0.7,0.7-0.7c0.7-0.1,1.6,0.3,1.9-0.2c0.3-0.6,0.1-1.4,0.2-2.1c0-0.4,0-0.9,0-1.3c-0.1-0.7,0.2-1,0.9-0.8
					c1.3,0.2,1.6-0.3,1.5-1.5c-0.1-1.7,0-1.7,1.7-1.7c2.7,0,2.7,0,2.7,2.7c0,0.9-0.2,1.2-1.1,1.1c-0.4,0-1.1-0.3-1.2,0.3
					c-0.2,1.2-0.2,2.5,0,3.7c0,0.1,0.2,0.2,0.3,0.2c1.3-0.1,1,0.8,1,1.5c0,0.6,0.1,1.3,0,1.9c-0.1,0.8,0.2,1.2,1,1
					c1-0.2,1.2,0.3,1.1,1.2c-0.1,0.4,0,0.9,0,1.3c0,2-0.3,1.7,1.7,1.7c1.7,0,1.7,0,1.7-1.7c0-0.6,0-1.1,0-1.7c0-0.6,0.1-0.9,0.8-0.8
					c1.2,0.2,1.4-0.4,1.3-1.4c-0.1-0.5,0-1,0-1.6c0-0.7-0.4-1.6,1-1.5c0.4,0,0.3-0.4,0.3-0.7c0-0.6,0-1.3,0-1.9
					c0-0.6-0.2-1.4,0.9-1.2c0.4,0.1,0.5-0.3,0.5-0.6c0-2.1,0-4.1,0-6.2c0-0.4-0.1-0.7-0.6-0.6c-1.1,0.2-1.2-0.4-1.1-1.3
					c0.1-0.6,0-1.3,0-1.9c0-0.7,0.2-1.5-0.9-1.4c-0.5,0-0.4-0.4-0.4-0.8c0-0.6,0-1.3,0-1.9c0-0.3,0.1-0.7-0.3-0.7
					c-1.3,0.1-1-0.8-1-1.5c0-0.7,0-1.4,0-2.1c0-0.4-0.1-0.7-0.6-0.6c-1.5,0.3-1.4-0.6-1.3-1.6c0-0.5,0-1,0-1.6
					c0-0.6-0.2-0.8-0.8-0.7c-1.3,0.3-1.4-0.5-1.3-1.5c0.1-0.7,0-1.2-0.9-1.1c-0.7,0.1-0.9-0.2-0.9-0.9c0-0.5,0-1,0-1.6
					c0.1-1.1-0.2-1.5-1.4-1.5c-1.1,0-1.6,0.3-1.4,1.4c0.1,0.5,0,1.1,0,1.7c0,0.6-0.1,0.9-0.8,0.8c-1.1-0.2-1.3,0.4-1.2,1.3
					c0,0.4,0.3,1.3-0.5,1.2c-1.4-0.1-1.2,0.7-1.2,1.6c0,0.6,0,1.1,0,1.7c0,0.3-0.1,0.7-0.5,0.6c-1.6-0.3-1.3,0.8-1.3,1.7
					c0,0.6,0,1.2,0,1.8c0,0.6-0.2,0.8-0.8,0.7c-1.1-0.2-1.4,0.3-1.3,1.3c0.1,0.5,0,1,0,1.6c0,0.3,0,0.6-0.3,0.6
					c-1.4-0.1-1,0.9-1,1.7c0,0.6,0,1-0.8,1c-0.7,0-0.9-0.3-0.8-0.9c0-0.8,0.4-1.8-1.1-1.8c-0.3,0-0.2-0.5-0.3-0.8c0-0.6,0-1.3,0-1.9
					c0-0.3,0.1-0.7-0.4-0.7c-1.3,0.1-1-0.7-1-1.4c0-0.7,0-1.4,0-2.1c0-0.4,0-0.8-0.5-0.7c-1.4,0.2-1.3-0.7-1.2-1.6
					c0-0.6,0-1.1,0-1.7c0-0.3-0.1-0.7-0.5-0.6c-1.6,0.3-1.2-0.8-1.3-1.7c0-0.4,0.1-1-0.6-0.9c-1.5,0.3-1.6-0.6-1.5-1.7
					c0-0.5,0-1,0-1.6c0-0.3,0-0.5-0.4-0.7c-1.8-0.5-2.6,0.1-2.6,1.9c0,0.4,0,0.9,0,1.3c0,0.6-0.2,0.8-0.8,0.7
					c-1.3-0.3-1.4,0.5-1.3,1.5c0,0.4,0.2,1.2-0.5,1.1c-1.4-0.2-1.2,0.7-1.2,1.5c0,0.6,0,1.1,0,1.7c0,0.4-0.1,0.8-0.6,0.7
					c-1-0.2-1.1,0.4-1.1,1.2c0,0.6,0,1.2,0,1.8c0,0.7,0.1,1.3-1,1.2c-0.5-0.1-0.5,0.4-0.5,0.7c0,0.7,0,1.4,0,2.1
					c0,0.4,0,0.7-0.5,0.7c-0.9-0.1-0.8,0.5-0.8,1.1c0,0.8,0,1.6,0,2.5c0.1,0.8-0.2,1.1-1,1c-0.5,0-1.1-0.2-1.1,0.7c0,2,0,4.1,0,6.1
					c0,0.4,0,0.8,0.5,0.7c0.9-0.1,0.9,0.4,0.8,1c0,0.7,0,1.4,0,2.1c0,0.3,0,0.8,0.5,0.8c1.6-0.3,1.3,0.8,1.3,1.7c0,0.7,0,1.4,0,2.1
					c0,0.4,0,0.8,0.6,0.7c1.6-0.3,1.5,0.6,1.5,1.7c0,0.6,0,1.2,0,1.8c0,0.3,0,0.6,0.4,0.7c1.6,0.5,2.4-0.1,2.4-1.7
					c0-0.4,0-0.9,0-1.3c-0.1-0.9,0.2-1.3,1.1-1.2c0.9,0.2,1-0.3,1-1c0-0.9,0-1.7,0-2.6c0-0.5,0-0.9,0.7-0.8c0.9,0.1,1.1-0.3,1-1.1
					c-0.1-0.7-0.1-1.4,0-2.1c0.1-0.9-0.2-1.3-1.1-1.1c-1.3,0.2-1.7-0.2-1.6-1.6c0.1-2.2,0-2.2,2.3-2.2c2.3,0,2.3,0,2.4,2.4
					c0,0.5,0,0.9,0.7,0.9c2,0.1,2,0.2,2,2.2c0,0.4,0,0.8,0,1.2c-0.2,1,0.3,1.4,1.2,1.2c1-0.2,1.3,0.3,1.2,1.2c-0.1,0.9,0,1.8,0,2.7
					c0,0.5-0.1,0.9-0.7,0.8c-1.3-0.2-1.5,0.5-1.4,1.5c0.1,0.6,0,1.1,0,1.7c0,0.4-0.1,0.7-0.6,0.7c-0.8-0.1-0.8,0.4-0.8,0.9
					c0,0.7,0,1.5,0,2.2c0,0.4-0.1,0.7-0.6,0.7c-0.8-0.1-0.8,0.4-0.8,1c0,0.6,0,1.3,0,1.9c0.1,0.7-0.2,1.1-0.9,1
					c-1.3-0.2-1.6,0.4-1.4,1.5c0.1,0.4,0,0.9,0,1.3c0,0.2,0.1,0.7-0.2,0.7c-1.7,0-1,1.2-1.1,2c-0.1,0.4,0.1,1-0.6,0.9
					c-1.7-0.3-1.6,0.8-1.5,1.9c0,0.4,0,0.9,0,1.3c0.2,1.1-0.5,1.1-1.3,1.1c-0.7,0-1.5,0.2-1.4-1.1c0.1-0.9,0-1.8,0-2.7
					c0-0.5-0.1-0.9-0.7-0.8c-0.9,0.1-1-0.3-1-1c0-0.5,0-1,0-1.6c0.1-0.7-0.2-1-0.9-0.9c-0.8,0.1-1-0.3-0.9-1c0-0.4,0-0.8,0-1.2
					c0.1-0.6-0.2-0.8-0.8-0.8c-0.6,0-1,0-1,0.8c0,2.6,0,5.2,0,7.8c0,0.5,0.1,0.9,0.7,0.8c1-0.1,1.1,0.4,1.1,1.2
					c-0.1,0.6,0,1.3,0,1.9c0,0.3,0,0.7,0.4,0.7c1.3-0.1,0.9,0.8,1,1.5c0,0.4-0.3,1.2,0.6,1.1c1.1-0.2,1.2,0.4,1.1,1.3
					c0,0.6,0,1.2,0,1.8c-0.1,0.8,0.1,1.3,1,1.1c0.5-0.1,0.6,0.3,0.6,0.7c0,0.6,0,1.1,0,1.7c0,0.4-0.1,0.7-0.5,0.7
					c-1.1-0.2-1.2,0.5-1.1,1.3c0,0.7,0,1.4,0,2.1c0,0.4-0.1,0.8-0.6,0.8c-1.3-0.2-1.2,0.7-1.2,1.5c0,0.4,0.3,1.1-0.5,1.1
					c-0.8,0-0.9,0.4-0.9,1.1c0,0.6,0,1.1,0,1.7c0,0.7,0,1.3-1,1.2c-0.6-0.1-0.7,0.2-0.7,0.8c0,2.6,0,5.3,0,7.9
					c0,0.7,0.4,0.7,0.9,0.7c0.5,0,0.9,0,0.9-0.7c0-0.5,0-1,0-1.4c0-0.5,0.1-0.9,0.7-0.8c1,0.1,1.1-0.4,1.1-1.2c0-0.6,0-1.1,0-1.7
					c0-0.3,0-0.7,0.4-0.6c1.3,0.2,1.2-0.6,1.2-1.5c0-0.6,0.1-1.1,0-1.7c-0.1-1.1,0.3-1.4,1.3-1.4c1.1,0,1.5,0.3,1.4,1.4
					c-0.1,0.7,0,1.4,0,2.1c0,0.5,0.1,0.8,0.6,0.7c1.4-0.2,1.5,0.6,1.5,1.7c0,0.5-0.4,1.3,0.6,1.3c0.8,0,0.8,0.4,0.8,1
					c0,0.6,0,1.1,0,1.7c-0.1,0.7,0.2,1,0.9,0.9c1.4-0.2,1.6,0.5,1.5,1.6c-0.1,0.5,0,1,0,1.6c0,0.3,0,0.7,0.4,0.6
					c1.1-0.1,0.9,0.6,0.9,1.2c0,0.6,0,1.3,0,1.9c0,0.3-0.1,0.8,0.5,0.7c1-0.1,0.9,0.5,0.9,1.2c0,0.7,0,1.4,0,2.1
					c0,0.4,0.2,0.7,0.6,0.6c1.7-0.3,1.5,0.7,1.5,1.8c0,0.7,0,1.5,0,2.2c0,0.5-0.1,0.9-0.7,0.8c-1.7-0.4-1.8,0.6-1.7,1.9
					c0,0.4,0,0.9,0,1.3c0.2,1.1-0.3,1.5-1.3,1.3c-1.2-0.2-1.6,0.3-1.4,1.4c0.1,0.4,0,0.8,0,1.2c0,0.3,0,0.6-0.3,0.6
					c-1.4,0-2.9,0.4-4.1-0.2c-0.7-0.3-0.1-1.8-0.2-2.7c-0.1-0.6,0.2-0.8,0.8-0.9c1.9-0.1,1.9-0.1,1.9-2.1c0-0.4,0-0.9,0-1.3
					c0.1-0.7-0.2-1-0.9-0.9c-0.7,0.1-0.9-0.3-0.8-0.9c0-1,0-1.9,0-2.9c0-0.5-0.1-0.8-0.6-0.7c-1.4,0.3-1.6-0.6-1.4-1.6
					c0-0.4,0-0.8,0-1.2c0.2-1.1-0.2-1.4-1.3-1.4c-1.2,0-1.6,0.3-1.5,1.5c0.1,0.6,0,1.3,0,1.9c0,0.4-0.1,0.8-0.6,0.7
					c-1.6-0.3-1.5,0.7-1.5,1.7c0,0.5,0,1,0,1.6c0.1,0.8,0,1.4-1.1,1.2c-0.5-0.1-0.7,0.2-0.7,0.7c0,0.4,0.1,0.9,0,1.3
					c-0.1,0.8,0.6,2-1.1,2c-0.3,0-0.2,0.6-0.2,0.9c0,1.8,0,3.5,0,5.3c0,0.9,0.1,1.3,1.1,1.2c0.9-0.2,1,0.3,1,1c0,0.9,0,1.7,0,2.6
					c0,0.3-0.1,0.8,0.4,0.8c1.2-0.1,0.9,0.7,0.9,1.3c0,0.6,0,1.1,0,1.7c0,0.3,0,0.6,0.5,0.6c1-0.2,1,0.5,1,1.2c0,0.8,0,1.6,0,2.3
					c0,0.5,0.2,0.8,0.7,0.7c0.9-0.1,1.1,0.4,1,1.1c0,0.6,0,1.1,0,1.7c-0.1,0.7,0,1.2,0.9,1c0.7-0.1,0.8,0.3,0.8,0.8c0,0.5,0,1,0,1.4
					c0,0.3,0.1,0.7,0.5,0.6c2-0.4,1.7,1.1,1.6,2.1c-0.1,1.2,0.3,1.5,1.5,1.5c1.3,0,1.8-0.3,1.6-1.6c0-0.3,0-0.5,0-0.8
					c-0.1-0.9,0.2-1.4,1.2-1.2c0.8,0.1,1-0.3,0.9-1c0-0.4,0-0.9,0-1.3c0-0.4,0.1-0.7,0.6-0.6c1.2,0.2,1.2-0.6,1.1-1.4
					c0-0.6,0-1.2,0-1.8c0-0.3,0-0.7,0.4-0.6c1.5,0.3,1.3-0.8,1.3-1.7c0-0.6,0-1.2,0-1.8c0-0.3,0-0.8,0.5-0.7
					c0.9,0.1,0.9-0.5,0.9-1.1c0-0.6,0-1.2,0-1.8c0-0.3,0-0.7,0.4-0.6c1.2,0.1,0.9-0.7,0.9-1.3c0-0.6-0.2-1.2,0.8-1.2
					c1,0,0.7,0.7,0.8,1.2c0.1,0.5-0.4,1.3,0.6,1.3c0.8,0,0.8,0.4,0.8,1c0,0.6,0,1.3,0,1.9c0,0.4,0.1,0.8,0.5,0.7
					c1.6-0.3,1.5,0.7,1.4,1.7c0,0.6,0,1.1,0,1.7c0,0.5,0.1,0.9,0.7,0.8c0.9-0.1,1.1,0.3,1,1.1c-0.1,0.7,0,1.4,0,2.1
					c0,0.3,0,0.7,0.4,0.6c1.6-0.3,1.4,0.9,1.3,1.7c-0.1,0.9,0.2,1.3,1.1,1.2c0.7-0.1,1,0.2,0.9,0.9c0,0.4,0,0.9,0,1.3
					c-0.2,1.1,0.2,1.5,1.4,1.5c1.2,0,1.7-0.3,1.5-1.5c-0.1-0.3,0-0.7,0-1c-0.1-0.8,0.1-1.3,1-1.1c0.7,0.1,0.8-0.3,0.8-0.9
					c0-0.5,0-1,0-1.4c0-0.4,0.2-0.7,0.6-0.6c1.6,0.3,1.6-0.6,1.5-1.7c0-0.5,0-1,0-1.6c0-0.3,0.1-0.7,0.5-0.6
					c1.6,0.3,1.4-0.8,1.4-1.8c0-0.6,0-1.2,0-1.8c0-0.3,0.1-0.7,0.5-0.6c0.9,0.1,0.9-0.5,0.9-1.1c0-0.6,0-1.2,0-1.8
					c0-0.3,0-0.7,0.4-0.6c1.2,0.1,0.9-0.7,0.9-1.3c0-0.6,0-1.3,0-1.9c-0.1-0.8,0.1-1.4,1.1-1.2c0.5,0.1,0.7-0.2,0.7-0.7
					c0-2,0-4.1,0-6.1c0-0.4-0.1-0.7-0.6-0.7c-1,0.1-0.9-0.5-0.9-1.1c0-0.7,0-1.4,0-2.1c0-0.3,0-0.7-0.4-0.7
					c-1.2,0.1-0.9-0.7-0.9-1.3c0-0.6-0.1-1.3,0-1.9c0.1-0.9-0.1-1.4-1.2-1.3c-0.7,0.1-0.9-0.2-0.9-0.9c0-0.9,0-1.7,0-2.6
					c0-0.4,0-0.6-0.5-0.7c-2.4-0.4-2.9-0.1-2.9,2.4c0,0.2,0,0.4,0,0.6c0.1,0.9-0.2,1.3-1.1,1.2c-0.9-0.2-1,0.3-1,1
					c0,0.9,0,1.8,0,2.7c0,0.4,0,0.8-0.5,0.7c-1-0.1-0.9,0.6-0.9,1.2c0,0.7,0,1.4,0,2.1c-0.1,0.9,0.2,1.2,1.1,1.1
					c1.1-0.2,1.4,0.2,1.4,1.3c-0.1,2.4,0,2.4-2.4,2.4c-0.4,0-0.9,0-1.3,0c-0.6,0-0.8-0.2-0.7-0.8c0-0.3,0-0.7,0-1
					c0.2-1.1-0.2-1.7-1.4-1.4c-0.8,0.1-1.1-0.2-1-1c0.1-0.9,0-1.8,0-2.7c0-0.5-0.2-0.7-0.7-0.8c-2-0.2-2-0.2-2-2.3
					c0-0.4,0-0.8,0-1.2c-0.1-0.9,0.1-1.5,1.2-1.3c0.6,0.1,0.9-0.1,0.8-0.8c0-0.4-0.1-0.8,0-1.2c0.1-0.8-0.6-2,1.1-2
					c0.2,0,0.2-0.3,0.2-0.5c0-0.5,0-1,0-1.6c0.1-0.8-0.4-1.8,1.1-1.8c0.4,0,0.3-0.5,0.3-0.7c0-0.6,0-1.3,0-1.9
					c-0.1-0.7,0.1-1.2,1-1.1c1,0.2,1.2-0.4,1.1-1.2c0-0.3,0-0.7,0-1c-0.1-0.8,0-1.5,1.1-1.3c0.5,0.1,0.6-0.2,0.6-0.6
					c0-0.6,0-1.1,0-1.7c0-0.4,0.2-0.7,0.6-0.6c1.5,0.3,1.6-0.6,1.5-1.7c0-0.5,0.1-1,0-1.4c-0.2-1.1,0.5-1.1,1.2-1
					c0.7,0.1,1.6-0.3,1.4,1c-0.1,0.9,0,1.8,0,2.7c0,0.5,0.1,0.8,0.6,0.8c1.6-0.3,1.4,0.8,1.4,1.8c0,0.8-0.5,1.9,1.1,1.9
					c0.3,0,0.2,0.4,0.3,0.7c0,0.5,0,1,0,1.4c-0.1,0.8,0.4,0.8,1,0.8c0.6,0,0.8-0.2,0.8-0.8c0-2.6,0-5.2,0-7.8c0-0.3,0.1-0.8-0.4-0.8
					c-1.2,0.1-0.9-0.7-0.9-1.4c0-0.6,0-1.2,0-1.8c0-0.4,0-0.8-0.5-0.7c-1.4,0.2-1.3-0.7-1.2-1.6c0-0.5,0.1-1.1-0.7-1
					c-1.1,0.1-1.3-0.5-1.3-1.4c0-0.5,0-1,0-1.6c0.1-0.7-0.1-1.3-1-1.2c-0.5,0.1-0.7-0.2-0.7-0.7c0-0.6,0-1.2,0-1.8
					c0-0.3,0.1-0.7,0.5-0.6c1.4,0.2,1.2-0.8,1.2-1.6c0-0.6,0-1.1,0-1.7c0-0.5,0.2-1,0.8-0.9c1.2,0.2,1.2-0.6,1.2-1.4
					c0-0.5-0.3-1.2,0.6-1.1c1.1,0.1,1.2-0.5,1.1-1.3c0-0.6,0-1.2,0-1.8c0-0.3-0.1-0.7,0.3-0.7c1.4,0.1,1-0.9,1-1.6
					C53.5,114.4,53.5,113.3,53.5,112.3z M20.6,1.9C20.6,1.9,20.6,1.9,20.6,1.9c-0.7-0.1-1.5,0-2.2-0.1c-0.8-0.1-1.1,0.2-1,1
					c0.1,0.8,0,1.6,0,2.3c0,0.6-0.1,1-0.7,0.8c-0.9-0.2-1.1,0.3-1,1.1c0,0.5-0.1,1,0,1.4c0.2,1.2-0.3,1.6-1.4,1.4
					c-0.8-0.1-1.1,0.2-1,1c0.1,0.9,0,1.8,0,2.7c0,0.5,0,0.9-0.7,0.8c-0.9-0.1-1.1,0.4-1,1.2c0,0.7-0.1,1.4,0,2.1
					c0.1,1-0.3,1.4-1.3,1.3c-0.9-0.1-1.2,0.2-1.2,1.1c0.1,1.1,0.1,2.3,0,3.4c-0.1,1,0.2,1.5,1.3,1.3c1-0.2,1.3,0.3,1.2,1.2
					c0,0.3,0,0.6,0,0.9c-0.1,0.8,0.1,1.3,1,1.2c0.6-0.1,0.7,0.3,0.7,0.8c0,1,0,2,0,3c0,0.5,0.1,0.8,0.6,0.7c1.7-0.3,1.9,0.6,1.8,2
					c-0.1,0.4,0,0.9,0,1.3c0,0.4,0.2,0.7,0.6,0.6c1.2-0.2,1.2,0.5,1.2,1.3c0,0.5,0,1,0,1.6c0,0.6-0.3,1.5,0.9,1.3
					c0.4,0,0.4,0.4,0.4,0.7c0,0.5,0.1,1,0,1.6c-0.1,1,0.2,1.3,1.3,1.3c2.5-0.1,2.5,0,2.6-2.5c0-0.4-0.2-1.1,0.4-1
					c1.2,0.1,0.9-0.7,0.9-1.4c0-0.7,0-1.4,0-2.1c0-0.6,0.1-0.9,0.8-0.8c0.8,0.1,1-0.3,0.9-1c0-0.4,0-0.9,0-1.3
					c-0.2-1.2,0.1-1.9,1.5-1.6c0.7,0.1,1-0.2,1-0.9c-0.1-0.9,0-1.9,0-2.9c0-0.3-0.1-0.7,0.4-0.7c1.6,0.2,1.3-0.9,1.3-1.8
					c-0.1-1.1,0.2-1.6,1.4-1.6c1.2,0,1.5,0.5,1.4,1.5c-0.1,0.4,0,0.9,0,1.3c0,0.3,0.1,0.6,0.4,0.5c1.4-0.2,1.2,0.7,1.2,1.6
					c0,0.7,0,1.4,0,2.1c0,0.6,0.1,0.8,0.8,0.9c1.9,0.1,1.9,0.1,1.9,2c0,0.3,0,0.7,0,1c0,0.5,0.2,0.8,0.7,0.7
					c1.3-0.3,1.5,0.4,1.3,1.5c-0.1,0.5,0,1,0,1.4c0,0.7-0.2,1.5,1,1.4c0.4,0,0.4,0.3,0.4,0.7c0,0.6,0,1.3,0,1.9
					c0,0.6,0.1,0.9,0.9,0.9c2.5,0.1,2.5,0.1,2.6-2.4c0-0.4-0.3-1,0.3-1.1c0.8-0.1,0.7-0.6,0.7-1.1c0-0.8,0-1.6,0-2.5
					c0-0.5,0.1-0.8,0.6-0.7c1.6,0.3,1.5-0.6,1.5-1.7c0-0.5,0-1,0-1.4c0-0.6,0.2-0.7,0.8-0.8c1.9-0.1,1.9-0.1,1.9-2
					c0-0.4,0-0.8,0-1.2c-0.1-0.8,0-1.5,1.1-1.3c0.4,0.1,0.6-0.2,0.6-0.6c0-0.4,0.1-0.9,0-1.3c-0.1-1.1,0.2-1.5,1.3-1.4
					c0.4,0.1,1.1,0.3,1.1-0.6c0-1.5,0-3,0-4.5c0-0.5-0.2-0.6-0.6-0.6c-1.8-0.2-1.8-0.2-1.8-2.1c0-0.5,0-1,0-1.4
					c0.1-0.7-0.1-1.1-0.9-1c-0.7,0.1-0.9-0.3-0.8-0.9c0-0.9,0-1.9,0-2.9c0-0.5-0.2-0.7-0.7-0.8c-1.9-0.1-1.9-0.1-1.9-2.1
					c0-0.3,0-0.5,0-0.8c0.1-0.8-0.2-1.1-1-1c-0.5,0.1-1.1,0.2-1.1-0.8c0-1.1,0.5-2.7-0.2-3.2c-0.8-0.6-2.2-0.2-3.4-0.2
					c-0.5,0-1,0-1.4,0c-0.6,0-0.8,0.2-0.8,0.7c0,0.9,0,1.7,0,2.6c0,0.6-0.2,0.9-0.8,0.8c-1.2-0.2-1.4,0.4-1.3,1.4c0,0.3,0,0.5,0,0.8
					c0,1.7,0,1.7-1.7,1.7c-0.8,0-1.1,0.2-1,1c0.1,0.9,0,1.7,0,2.6c0,0.6-0.1,1-0.8,0.9c-0.7-0.1-0.9,0.3-0.8,0.9c0,0.9,0,1.8,0,2.7
					c0,0.4,0,0.7-0.5,0.9c-1.8,0.4-2.2,0-2.2-1.7c0-0.6,0-1.1,0-1.7c0-0.7-0.1-1.2-0.9-1.1c-0.6,0.1-0.7-0.3-0.7-0.8c0-1,0-2,0-3
					c0-0.4,0-0.7-0.6-0.8c-0.6,0-1.4,0.4-1.8-0.3c-0.3-0.5-0.1-1.3-0.1-1.9c0-0.3,0-0.6,0-0.9c0-0.5-0.2-0.8-0.7-0.7
					c-0.9,0.1-1-0.3-1-1c0-1,0.5-2.4-0.2-2.9C23,1.6,21.7,1.9,20.6,1.9z M41.8,256.3c2.9,0,2.9,0,2.9-2.9c0-0.1,0-0.2,0-0.3
					c-0.1-0.8,0.2-1.1,1-1c1,0.2,1.2-0.3,1.1-1.2c0-0.4,0-0.8,0-1.2c-0.2-1.2,0.2-1.8,1.5-1.5c0.9,0.2,1.2-0.2,1.2-1.1
					c-0.1-0.9,0-1.7,0-2.6c0-0.4,0-0.9,0.5-0.8c1.3,0.2,1.2-0.6,1.2-1.5c0-0.6,0.1-1.1,0-1.7c-0.1-1.1,0.3-1.5,1.4-1.3
					c0.9,0.2,1.1-0.3,1.1-1.1c-0.1-1.2-0.1-2.3,0-3.5c0.1-1-0.1-1.5-1.2-1.3c-0.9,0.1-1.3-0.2-1.2-1.1c0.1-0.4,0-0.8,0-1.2
					c0.1-0.7-0.1-1.1-0.9-1c-0.7,0.1-0.9-0.3-0.8-0.9c0-0.9,0-1.9,0-2.9c0-0.5-0.2-0.7-0.7-0.7c-2-0.2-2-0.2-2-2.2c0-0.3,0-0.7,0-1
					c0-0.4-0.1-0.7-0.6-0.6c-1.7,0.3-1.6-0.7-1.5-1.8c0-0.6,0-1.1,0-1.7c0-0.2-0.1-0.6-0.1-0.6c-1.5-0.1-0.8-1.2-0.9-1.8
					c-0.1-1.8,0-1.8-1.8-1.9c-1.3-0.1-1.9,0.2-1.6,1.6c0.1,0.5,0,0.9,0,1.4c0,0.3,0,0.6-0.4,0.6c-1.2-0.1-1,0.7-1,1.4
					c0,0.7,0,1.4,0,2.1c0,0.5-0.2,0.8-0.7,0.7c-1.4-0.3-1.5,0.5-1.4,1.6c0,0.5,0,1,0,1.6c0,0.5-0.1,0.8-0.7,0.8c-2,0.2-2,0.2-2,2.2
					c0,0.5,0,1,0,1.4c0,0.5-0.1,0.9-0.7,0.8c-0.9-0.1-1,0.3-1,1c0,0.5,0,1,0,1.6c0,0.3-0.1,0.5-0.5,0.6c-1.6,0.4-2.3,0-2.3-1.7
					c0-0.2,0-0.3,0-0.5c0.1-0.7,0-1.2-0.9-1.1c-0.6,0.1-0.7-0.2-0.7-0.7c0-1,0-2,0-3c0-0.5-0.1-0.7-0.6-0.7c-0.6,0-1.4,0.3-1.7-0.3
					c-0.3-0.5-0.1-1.2-0.1-1.8c0-0.4,0-0.8,0-1.2c0-0.4-0.1-0.7-0.6-0.7c-1.3,0.2-1.1-0.6-1.1-1.4c0-0.7,0-1.4,0-2.1
					c0-0.2,0.1-0.6-0.3-0.6c-1.5,0.1-1-1-1.1-1.8c0-1.9,0-1.9-2-1.9c-1.9,0-1.9,0-1.9,1.8c0,0.4,0,0.8,0,1.2c0,0.3-0.1,0.6-0.5,0.6
					c-0.9-0.1-0.9,0.4-0.8,1c0,0.8,0,1.6,0,2.3c0,0.6-0.2,0.9-0.8,0.8c-0.8-0.1-1.1,0.3-1,1c0,0.5,0,1,0,1.4
					c0.1,1.1-0.2,1.7-1.4,1.4c-0.8-0.1-1.1,0.1-1,1c0.1,0.9,0,1.7,0,2.6c0,0.6-0.1,1-0.8,0.9c-0.7-0.1-0.9,0.2-0.9,0.9
					c0,0.3,0,0.6,0,0.9c0.1,1.1-0.1,1.7-1.4,1.5c-0.9-0.2-1.1,0.3-1.1,1.1c0.1,1.2,0.1,2.3,0,3.5c-0.1,1,0.2,1.4,1.3,1.3
					c0.9-0.1,1.3,0.2,1.2,1.1c-0.1,0.8,0,1.6,0,2.3c0,0.6,0.1,1.1,0.9,1c0.8-0.1,0.8,0.3,0.8,0.9c0,0.9,0,1.9,0,2.9
					c0,0.4,0,0.7,0.6,0.8c1.8,0.2,1.8,0.2,1.8,2.1c0,0.3,0,0.7,0,1c0,0.5,0.2,0.8,0.7,0.7c1-0.2,1.1,0.3,1.1,1.2c0,3,0,3.1,3.1,3
					c1.1,0,2.5,0.5,3.2-0.2c0.5-0.6,0.2-2,0.2-3c0,0,0-0.1,0-0.1c-0.1-0.6,0.1-0.9,0.8-0.8c0.8,0.1,1-0.3,0.9-1c0-0.4,0-0.9,0-1.3
					c-0.2-1.2,0.2-1.8,1.5-1.6c0.7,0.1,1-0.2,0.9-0.9c-0.1-0.9,0-1.9,0-2.9c0-0.3,0-0.8,0.5-0.7c1.4,0.2,1.2-0.7,1.2-1.5
					c0-0.7,0.1-1.4,0-2.1c-0.1-1.1,0.6-1,1.2-0.9c0.6,0.1,1.6-0.5,1.5,0.9c0,0.9,0,1.9,0,2.9c0,0.3,0,0.8,0.5,0.7
					c1.3-0.2,1.2,0.7,1.2,1.5c0,0.7,0,1.5,0,2.2c0,0.6,0.1,0.8,0.8,0.9c1.9,0.1,1.9,0.1,1.9,2c0,0.3,0,0.6,0,0.9
					c0,0.6,0.2,1,0.9,0.9c1.1-0.2,1.2,0.4,1.2,1.3C38.8,256.3,38.9,256.3,41.8,256.3z M21.5,51.3c0,0.6,0,1.2,0,1.8
					c0,0.4-0.1,1,0.6,0.9c1.3-0.2,1.1,0.6,1.1,1.4c0,0.6,0,1.2,0,1.8c0,0.5,0.2,0.6,0.7,0.7c1.7,0.1,1.7,0.2,1.7,2
					c0,0.4,0,0.9,0,1.3c0,0.3,0.1,0.5,0.5,0.6c1.5,0.4,2,0,2-1.6c0-0.5,0-1,0-1.6c0-0.5,0.1-0.9,0.7-0.8c1.7,0.4,1.8-0.6,1.7-1.9
					c0-0.5,0-0.9,0-1.4c0-0.3,0-0.5,0.4-0.6c1.2-0.4,2,0.1,2,1.3c0,0.6,0,1.3,0,1.9c0,0.4,0.1,0.7,0.6,0.6c1.9-0.4,1.9,0.8,1.8,2.1
					c0,0.4,0,0.9,0,1.3c0,0.3,0.1,0.4,0.4,0.5c1.4,0.4,2,0,2-1.5c0-0.6,0-1.1,0-1.7c0-0.6,0.2-0.8,0.8-0.7c1.5,0.3,1.9-0.5,1.7-1.8
					c-0.1-0.3,0-0.7,0-1c-0.1-0.8,0.2-1.2,1.1-1.1c0.8,0.1,1-0.2,1-1c-0.1-1.2,0-2.4,0-3.6c0-0.4,0-1-0.6-0.8
					c-1.4,0.3-1.6-0.5-1.5-1.6c0.1-0.5,0-1,0-1.6c0-0.6-0.2-0.8-0.7-0.7c-1.7,0.4-1.8-0.7-1.7-1.9c0-0.3,0-0.5,0-0.8
					c0.2-1-0.3-1.2-1.2-1.2c-1,0-1.3,0.3-1.2,1.3c0.1,0.6,0,1.3,0,1.9c0,0.5-0.1,0.8-0.7,0.7c-1.7-0.4-1.9,0.6-1.7,1.9
					c0.1,0.4,0,0.9,0,1.3c0.1,1-0.6,0.8-1.1,0.7c-0.5,0-1.3,0.4-1.3-0.7c0-0.8,0-1.6,0-2.5c0-0.5-0.1-0.7-0.6-0.7
					c-1.8-0.2-1.8-0.2-1.8-2c0-0.4,0-0.8,0-1.2c0-0.3-0.1-0.5-0.5-0.6c-1.5-0.4-2,0-2,1.6c0,0.3,0,0.7,0,1c0.2,1-0.2,1.4-1.3,1.3
					c-0.9-0.2-1.3,0.2-1.1,1.1c0.1,0.7,0,1.4,0,2.1c0,0.4-0.1,0.8-0.6,0.7c-1-0.2-1.2,0.4-1.1,1.2C21.5,50.3,21.5,50.8,21.5,51.3z
					 M42,206.9c0-0.6,0-1.2,0-1.8c0-0.5,0.1-1.1-0.7-1c-1.5,0.2-1.5-0.6-1.4-1.7c0-0.4,0-0.8,0-1.2c0-0.5-0.1-0.7-0.6-0.7
					c-1.8-0.2-1.8-0.2-1.8-2.1c0-0.4,0-0.8,0-1.2c0-0.3,0-0.5-0.5-0.6c-1.5-0.3-1.9,0-1.9,1.5c0,0.6,0,1.1,0,1.7
					c0,0.5-0.2,0.8-0.7,0.7c-1.7-0.4-1.8,0.7-1.7,1.9c0,0.3,0,0.7,0,1c0,0.3-0.1,0.5-0.5,0.6c-1.4,0.3-1.9,0-1.9-1.4
					c0-0.4,0-0.8,0-1.2c0.1-0.7-0.1-1.1-0.9-1c-1.3,0.3-1.7-0.4-1.5-1.6c0.1-0.4,0-0.8,0-1.2c0.1-0.9-0.3-1.1-1.2-1.2
					c-1.2-0.1-1.5,0.4-1.4,1.5c0.1,0.6,0,1.1,0,1.7c0,0.5-0.2,0.9-0.7,0.7c-1.5-0.3-1.8,0.5-1.6,1.8c0.1,0.4,0,0.8,0,1.2
					c0,0.3-0.1,0.6-0.5,0.6c-1.3-0.2-1.2,0.7-1.2,1.5c0,1.1,0,2.2,0,3.2c0,0.4-0.1,0.9,0.5,0.8c1.3-0.2,1.2,0.7,1.2,1.5
					c0,0.6,0,1.1,0,1.7c0,0.5,0.1,0.8,0.7,0.7c1.7-0.3,1.9,0.6,1.7,2c-0.1,0.4,0,0.9,0,1.3c0,0.3,0.1,0.5,0.5,0.6c1.5,0.4,2,0,2-1.5
					c0-0.6,0-1.1,0-1.7c0-0.5,0.2-0.8,0.7-0.7c1.7,0.3,1.9-0.6,1.7-1.9c-0.1-0.5,0-0.9,0-1.4c0-0.3,0-0.5,0.4-0.6
					c1.3-0.4,2,0.1,2,1.4c0,0.5,0,1,0,1.6c-0.1,0.7,0.2,1,0.9,0.9c1.4-0.3,1.6,0.4,1.5,1.6c-0.1,0.4,0,0.8,0,1.2
					c-0.1,0.9,0.2,1.2,1.1,1.2c1,0,1.4-0.2,1.3-1.3c-0.1-0.6,0-1.3,0-1.9c0-0.5,0.2-0.8,0.7-0.7c1.8,0.3,1.9-0.7,1.8-2
					c0-0.4,0-0.8,0-1.2c0-0.5,0.1-0.8,0.6-0.7c1.4,0.3,1.6-0.5,1.4-1.6C41.9,207.7,42,207.3,42,206.9z M42.6,51.2c0,0.7,0,1.4,0,2.1
					c0,0.4,0,0.8,0.6,0.7c1.1-0.2,1.2,0.5,1.1,1.3c0,0.6,0,1.2,0,1.8c0,0.5,0.1,0.9,0.7,0.8c1.7-0.3,1.9,0.6,1.7,1.9
					c0,0.3,0,0.6,0,0.9c-0.1,0.9,0.3,1.1,1.1,1.1c1.2,0.1,1.8-0.2,1.6-1.5c-0.1-0.5,0-1.1,0-1.7c0-0.5,0.2-0.7,0.7-0.7
					c1.8-0.2,1.8-0.2,1.8-2.1c0-0.3,0-0.5,0-0.8c-0.1-0.7,0.1-1.2,1-1c0.6,0.1,0.7-0.2,0.7-0.7c0-1.3,0-2.7,0-4c0-0.4,0-0.8-0.6-0.7
					c-1.1,0.2-1.2-0.5-1.1-1.3c0-0.6,0-1.2,0-1.8c0-0.6-0.2-0.9-0.8-0.8c-1.4,0.3-1.8-0.4-1.6-1.7c0.1-0.3,0-0.7,0-1
					c0.1-0.9-0.3-1.1-1.2-1.2c-1.2-0.1-1.8,0.3-1.6,1.6c0.1,0.5,0,1,0,1.6c0,0.5-0.1,0.8-0.7,0.8c-1.7,0.1-1.7,0.2-1.7,1.9
					c0,0.4,0,0.8,0,1.2c0,0.5-0.1,0.9-0.7,0.8c-1-0.2-1,0.4-1,1.1C42.6,50.2,42.6,50.7,42.6,51.2z M53.5,206.9c0-0.5,0-1,0-1.6
					c0-0.8,0.1-1.5-1.1-1.3c-0.5,0.1-0.6-0.3-0.6-0.7c0-0.5,0-1,0-1.6c0.1-0.9-0.2-1.4-1.2-1.2c-1.1,0.2-1.4-0.3-1.3-1.3
					c0.1-0.4,0-0.8,0-1.2c0.2-1.1-0.2-1.5-1.4-1.4c-1.1,0-1.5,0.3-1.3,1.4c0.1,0.5,0,1,0,1.6c0.1,0.7-0.2,1.1-0.9,1
					c-1.3-0.2-1.7,0.4-1.5,1.6c0,0.3,0,0.5,0,0.8c0.1,0.8-0.1,1.4-1.1,1.2c-0.5-0.1-0.6,0.3-0.6,0.7c0,1.4,0,2.8,0,4.1
					c0,0.3,0,0.8,0.5,0.7c1.3-0.2,1.3,0.6,1.2,1.5c0,0.6,0,1.1,0,1.7c0,0.5,0.2,0.7,0.7,0.7c1.7,0.2,1.7,0.2,1.7,2.1
					c0,0.4,0,0.8,0,1.2c0,0.3,0,0.5,0.3,0.6c1.3,0.5,2.3-0.1,2.3-1.5c0-0.6,0-1.1,0-1.7c0-0.5,0.1-0.7,0.6-0.7
					c1.8-0.2,1.8-0.2,1.8-2.1c0-0.3,0-0.7,0-1c0-0.5,0.2-0.8,0.7-0.7c0.9,0.2,1-0.3,1-1C53.5,208.1,53.5,207.5,53.5,206.9z
					 M9.2,51.2c0,0.7,0,1.4,0,2.1c0,0.5,0.1,0.9,0.7,0.8c1-0.2,1.1,0.4,1.1,1.2c0,0.6,0,1.2,0,1.8c-0.1,0.7,0.3,1,0.9,0.8
					c1.3-0.2,1.7,0.4,1.5,1.6c-0.1,0.4,0,0.9,0,1.3c-0.1,0.9,0.3,1,1.1,1.1c1.2,0.1,1.6-0.3,1.4-1.4c-0.1-0.6,0-1.2,0-1.8
					c0-0.5,0.2-0.8,0.7-0.7c1.4,0.3,1.5-0.5,1.4-1.6c0-0.6,0-1.1,0-1.7c0-0.4,0.1-0.7,0.6-0.6c1.5,0.3,1.5-0.6,1.5-1.7c0-1,0-2,0-3
					c0-0.5-0.1-0.9-0.7-0.8c-1.3,0.2-1.5-0.5-1.4-1.5c0.1-0.6,0-1.1,0-1.7c0-0.5-0.1-0.8-0.7-0.7c-1.4,0.3-1.5-0.6-1.4-1.6
					c0-0.4,0-0.8,0-1.2c0.1-0.9-0.3-1-1.1-1.1c-1.1-0.1-1.5,0.2-1.4,1.3c0.1,0.6,0,1.3,0,1.9c0,0.4-0.2,0.6-0.6,0.6
					c-1.8,0.2-1.8,0.2-1.8,2c0,0.3,0,0.7,0,1c0.1,0.6-0.1,0.9-0.8,0.8c-0.9-0.1-1,0.3-1,1C9.2,50.1,9.2,50.7,9.2,51.2z M9.2,206.8
					c0,0.7,0,1.5,0,2.2c0,0.4,0.1,0.7,0.6,0.6c1.2-0.2,1.2,0.6,1.1,1.4c0,0.6,0,1.1,0,1.7c0,0.5,0.1,0.9,0.7,0.8
					c1.7-0.4,1.8,0.6,1.7,1.9c0,0.5,0,0.9,0,1.4c0,0.3,0,0.5,0.3,0.6c1.3,0.5,2.1-0.1,2.1-1.5c0-0.6,0-1.1,0-1.7
					c0-0.5,0.1-0.8,0.6-0.7c1.4,0.3,1.6-0.6,1.4-1.7c0-0.3,0-0.6,0-0.9c-0.1-0.9,0.1-1.5,1.2-1.3c0.7,0.1,0.9-0.2,0.9-0.9
					c0-1.3,0-2.5,0-3.8c0-0.6-0.1-1-0.9-0.9c-1.1,0.2-1.3-0.4-1.2-1.3c0.1-0.5,0-1,0-1.6c0-0.5-0.2-0.8-0.7-0.7
					c-1.4,0.3-1.5-0.5-1.4-1.6c0-0.6,0-1.1,0-1.7c0-0.4-0.2-0.6-0.6-0.6c-1.7-0.2-1.9-0.1-1.9,1.6c0,0.5,0,1,0,1.6
					c0,0.5-0.2,0.9-0.7,0.7c-1.5-0.3-1.9,0.5-1.7,1.8c0,0.3,0,0.6,0,0.9c0,0.6-0.1,1-0.8,0.9c-0.8-0.1-1,0.3-1,1.1
					C9.2,205.7,9.2,206.3,9.2,206.8z M32.5,7.3c0-1.3,0-2.6,0-3.9c0-0.8-0.4-0.9-1-0.9c-0.5,0-1.1-0.2-1.1,0.8c0,2.6,0,5.2,0,7.9
					c0,0.9,0.5,0.8,1.1,0.8c0.6,0,1.1,0,1-0.8C32.4,9.8,32.5,8.5,32.5,7.3z M32.5,250.2c0-1.4,0-2.8,0-4.1c0-0.9-0.5-0.8-1.1-0.8
					c-0.6,0-1.1-0.1-1.1,0.8c0,2.7,0,5.4,0,8.1c0,0.9,0.5,0.8,1.1,0.8c0.6,0,1.1,0.1,1.1-0.8C32.4,252.9,32.5,251.6,32.5,250.2z
					 M32.5,221.1c0-1.1,0-2.2,0-3.2c0-0.8-0.3-0.9-1-0.9c-0.6,0-1.2-0.1-1.2,0.9c0.1,2,0,4,0,6.1c0,0.8,0.1,1.2,1.1,1.2
					c1,0,1.1-0.4,1.1-1.2C32.4,223,32.5,222,32.5,221.1z M32.5,192.2c0-1.2,0-2.3,0-3.5c0-0.9-0.6-0.7-1.1-0.7
					c-0.5,0-1.1-0.2-1.1,0.7c0,2.2,0,4.5,0,6.7c0,0.9,0.6,0.7,1.1,0.7c0.5,0,1,0.1,1-0.7C32.4,194.3,32.5,193.2,32.5,192.2z
					 M32.5,36.5c0-1-0.1-2.1,0-3.1c0.1-0.8-0.3-1-1-0.9c-0.6,0.1-1.2-0.2-1.2,0.8c0.1,2.1,0.1,4.2,0,6.4c0,1,0.5,0.9,1.1,0.9
					c0.8,0,1.1-0.1,1-1C32.4,38.6,32.5,37.5,32.5,36.5z M32.5,65.7c0-1.1-0.1-2.2,0-3.2c0.1-0.9-0.4-1-1.1-1c-0.7,0-1.1,0-1.1,1
					c0.1,2,0.1,4,0,6c0,0.8,0.1,1.2,1.1,1.2c1,0,1.1-0.4,1.1-1.2C32.4,67.5,32.5,66.6,32.5,65.7z M54.3,6.6c0-0.7,0-1.4,0-2.1
					c0-0.9-0.6-0.7-1.1-0.7c-0.5,0-1.1-0.2-1.1,0.7c0,1.4,0,2.8,0,4.1c0,0.5,0.2,0.7,0.8,0.8c0.9,0.1,1.6,0,1.4-1.3
					C54.2,7.6,54.3,7.1,54.3,6.6z M54.3,98.8c0-0.7,0-1.4,0-2.1c0.1-0.8-0.4-0.9-1-0.9c-0.6,0-1.2-0.1-1.2,0.9c0.1,1.3,0,2.6,0,3.9
					c0,0.6,0.1,0.8,0.8,0.9c1.1,0.1,1.6-0.2,1.4-1.4C54.2,99.7,54.3,99.3,54.3,98.8z M54.3,192.5c0-0.7,0-1.4,0-2.1
					c0.1-0.9-0.6-0.8-1.1-0.8c-0.6,0-1.1-0.1-1.1,0.8c0,1.3,0,2.7,0,4c0,0.5,0.1,0.7,0.6,0.7c1,0.1,1.8,0,1.6-1.4
					C54.2,193.4,54.3,192.9,54.3,192.5z M54.3,65.9c0-0.5,0-1,0-1.6c0.1-0.9-0.1-1.3-1.2-1.3c-1,0-1.1,0.5-1.1,1.3c0,1,0,2,0,3
					c0,0.8-0.1,1.4,1.1,1.4c1.1,0,1.2-0.5,1.1-1.3C54.2,66.8,54.3,66.4,54.3,65.9z M52.1,223.2c0,0.7,0,1.4,0,2.1
					c-0.1,1,0.6,0.8,1.2,0.8c0.7,0,1.1-0.1,1-0.9c-0.1-1.2-0.1-2.3,0-3.5c0-0.8-0.1-1.2-1.1-1.2c-1.1,0-1.2,0.4-1.1,1.3
					C52.1,222.2,52.1,222.7,52.1,223.2z M54.3,35c0-0.6-0.1-1.1,0-1.7c0.1-0.9-0.3-1.2-1.2-1.2c-0.9,0-1.1,0.3-1.1,1.1
					c0,1,0,2.1,0,3.1c0,0.8-0.1,1.4,1.1,1.4c1.1,0,1.2-0.5,1.1-1.3C54.2,35.9,54.3,35.5,54.3,35z M52.1,159.3c0,0.7,0,1.4,0,2.1
					c-0.1,1,0.6,0.9,1.2,0.9c0.6,0,1.1,0,1.1-0.9c-0.1-1.3,0-2.6,0-3.9c0-0.3,0.1-0.6-0.3-0.8c-1-0.4-1.9,0.1-1.9,1.1
					C52.1,158.4,52.1,158.8,52.1,159.3z M54.3,251.7c0-0.5,0-1,0-1.4c0.1-0.9-0.2-1.2-1.1-1.2c-1,0-1.1,0.4-1.1,1.2
					c0,0.9,0,1.9,0,2.9c0,0.8,0,1.3,1.1,1.3c1.1,0,1.2-0.4,1.2-1.3C54.2,252.7,54.3,252.2,54.3,251.7z M8.8,6.5c0,0.7,0,1.4,0,2.1
					c0,0.6,0.2,0.8,0.8,0.8c0.5,0,1,0,1-0.8c0-1.2,0-2.5,0-3.7c0-0.7-0.1-1.1-1-1.1c-0.9,0-0.9,0.4-0.8,1.1C8.9,5.4,8.8,6,8.8,6.5z
					 M10.6,98.8c0-0.6,0-1.2,0-1.8c0-0.7-0.1-1.1-0.9-1.1c-0.9,0-0.9,0.4-0.8,1.1c0,1.2,0,2.3,0,3.5c0,0.7,0,1.1,0.9,1.1
					c1,0,0.9-0.5,0.9-1.2C10.6,99.8,10.6,99.3,10.6,98.8z M10.6,159.6c0-0.7,0-1.4,0-2.1c0.1-0.7-0.2-0.9-0.9-0.9
					c-0.6,0-0.9,0.1-0.9,0.8c0.1,1.2,0,2.4,0,3.6c0,0.6-0.1,1.1,0.8,1.1c0.8,0,1.1-0.3,1-1.1C10.6,160.7,10.6,160.2,10.6,159.6z
					 M8.9,192.3c0,0.6,0,1.2,0,1.8c0,0.7,0.1,1,0.9,1c0.8,0,1-0.3,0.9-1c0-1.2,0-2.3,0-3.5c0-0.7-0.1-1.1-1-1.1
					c-0.9,0-0.8,0.5-0.8,1.1C8.9,191.2,8.9,191.8,8.9,192.3z M8.9,65.8c0,0.6,0,1.2,0,1.8c0,0.6,0,1,0.9,1c0.7,0,1-0.3,0.9-1
					c0-1.2,0-2.3,0-3.5c0-0.7-0.1-1.1-1-1.1c-0.9,0-0.9,0.4-0.8,1C8.9,64.7,8.9,65.2,8.9,65.8z M8.9,223.3c0,0.6,0,1.2,0,1.8
					c0,0.6,0,1,0.8,1c0.7,0,1.1-0.1,1-0.9c-0.1-1.3-0.1-2.5,0-3.8c0-0.8-0.4-0.9-1-0.9c-0.8,0-0.8,0.4-0.8,1
					C8.9,222.1,8.9,222.7,8.9,223.3z M8.9,34.9c0,0.6,0,1.2,0,1.8c0,0.7,0.1,1,0.9,1c0.8,0,0.9-0.3,0.9-1c0-1.2,0-2.3,0-3.5
					c0-0.7-0.1-1.1-1-1.1c-0.9,0-0.8,0.5-0.8,1.1C8.9,33.8,8.9,34.3,8.9,34.9z M10.6,251.7c0-0.6,0-1.1,0-1.7c0.1-0.7-0.2-1-1-1
					c-0.7,0-0.9,0.3-0.9,0.9c0,1.1,0,2.2,0,3.3c0,0.6-0.1,1.1,0.8,1.1c0.8,0,1.1-0.3,1-1C10.6,252.8,10.6,252.3,10.6,251.7z" />
            <path fill="#EE4124" d="M53.5,112.3c0,1,0,2.1,0,3.1c0,0.7,0.4,1.7-1,1.6c-0.4,0-0.3,0.4-0.3,0.7c0,0.6,0,1.2,0,1.8
					c0.1,0.8,0,1.4-1.1,1.3c-0.9-0.1-0.6,0.7-0.6,1.1c0,0.8,0.1,1.6-1.2,1.4c-0.6-0.1-0.8,0.4-0.8,0.9c0,0.6,0,1.1,0,1.7
					c0,0.9,0.2,1.8-1.2,1.6c-0.4-0.1-0.5,0.3-0.5,0.6c0,0.6,0,1.2,0,1.8c0,0.5,0.2,0.7,0.7,0.7c0.9-0.1,1.1,0.4,1,1.2
					c0,0.5,0,1,0,1.6c-0.1,0.9,0.2,1.6,1.3,1.4c0.8-0.1,0.8,0.5,0.7,1c0,0.9-0.2,1.8,1.2,1.6c0.5-0.1,0.5,0.3,0.5,0.7
					c0,0.6,0,1.2,0,1.8c0,0.7-0.2,1.5,0.9,1.4c0.5,0,0.4,0.5,0.4,0.8c0,2.6,0,5.2,0,7.8c0,0.6-0.2,0.9-0.8,0.8c-0.6,0-1.1,0-1-0.8
					c0-0.5,0-1,0-1.4c0-0.2,0-0.7-0.3-0.7c-1.6,0-1.1-1.1-1.1-1.9c0-1,0.2-2.1-1.4-1.8c-0.5,0.1-0.6-0.3-0.6-0.8
					c0-0.9-0.1-1.8,0-2.7c0.1-1.3-0.8-0.9-1.4-1c-0.8-0.1-1.4,0-1.2,1c0.1,0.5,0,1,0,1.4c0.1,1.1,0,2-1.5,1.7
					c-0.4-0.1-0.6,0.2-0.6,0.6c0,0.6,0,1.1,0,1.7c0,0.4-0.1,0.7-0.6,0.6c-1.1-0.2-1.2,0.5-1.1,1.3c0,0.3,0,0.7,0,1
					c0.1,0.8-0.1,1.4-1.1,1.2c-0.8-0.1-1,0.3-1,1.1c0,0.6,0,1.3,0,1.9c0,0.3,0.1,0.8-0.3,0.7c-1.5-0.1-1,1-1.1,1.8c0,0.5,0,1,0,1.6
					c0,0.2,0,0.6-0.2,0.5c-1.7-0.1-1,1.2-1.1,2c-0.1,0.4,0,0.8,0,1.2c0.1,0.7-0.2,0.9-0.8,0.8c-1.1-0.2-1.3,0.4-1.2,1.3
					c0,0.4,0,0.8,0,1.2c0,2.1,0,2.1,2,2.3c0.6,0.1,0.8,0.2,0.7,0.8c0,0.9,0,1.8,0,2.7c-0.1,0.8,0.3,1.1,1,1c1.2-0.2,1.5,0.3,1.4,1.4
					c-0.1,0.3,0,0.7,0,1c0,0.5,0.1,0.8,0.7,0.8c0.4,0,0.9,0,1.3,0c2.4,0,2.3,0,2.4-2.4c0-1.1-0.3-1.5-1.4-1.3
					c-0.9,0.1-1.2-0.2-1.1-1.1c0.1-0.7,0-1.4,0-2.1c0-0.6-0.1-1.3,0.9-1.2c0.5,0,0.5-0.4,0.5-0.7c0-0.9,0-1.8,0-2.7
					c0-0.7,0.1-1.2,1-1c0.9,0.2,1.3-0.3,1.1-1.2c0-0.2,0-0.4,0-0.6c0-2.4,0.5-2.8,2.9-2.4c0.5,0.1,0.5,0.3,0.5,0.7
					c0,0.9,0,1.7,0,2.6c0,0.7,0.2,1,0.9,0.9c1-0.2,1.3,0.3,1.2,1.3c-0.1,0.6,0,1.3,0,1.9c0,0.7-0.2,1.5,0.9,1.3
					c0.4,0,0.4,0.4,0.4,0.7c0,0.7,0,1.4,0,2.1c0,0.6-0.1,1.3,0.9,1.1c0.5-0.1,0.6,0.3,0.6,0.7c0,2,0,4.1,0,6.1
					c0,0.5-0.2,0.8-0.7,0.7c-1-0.2-1.1,0.4-1.1,1.2c0.1,0.6,0,1.3,0,1.9c0,0.7,0.2,1.5-0.9,1.3c-0.4,0-0.4,0.3-0.4,0.6
					c0,0.6,0,1.2,0,1.8c0,0.6,0,1.2-0.9,1.1c-0.4-0.1-0.5,0.3-0.5,0.6c0,0.6,0,1.2,0,1.8c0,1,0.2,2.1-1.4,1.8
					c-0.4-0.1-0.5,0.2-0.5,0.6c0,0.5,0,1,0,1.6c0.1,1.1,0.1,2-1.5,1.7c-0.4-0.1-0.6,0.2-0.6,0.6c0,0.5,0,1,0,1.4
					c0,0.6-0.1,1-0.8,0.9c-0.9-0.2-1.1,0.3-1,1.1c0,0.3,0,0.7,0,1c0.2,1.2-0.3,1.5-1.5,1.5c-1.2,0-1.5-0.4-1.4-1.5
					c0.1-0.4,0-0.9,0-1.3c0.1-0.7-0.2-1-0.9-0.9c-1,0.2-1.2-0.3-1.1-1.2c0.1-0.9,0.3-2-1.3-1.7c-0.4,0.1-0.4-0.3-0.4-0.6
					c0-0.7,0-1.4,0-2.1c0.1-0.8-0.1-1.3-1-1.1c-0.6,0.1-0.7-0.3-0.7-0.8c0-0.6,0-1.1,0-1.7c0-1,0.2-2.1-1.4-1.7
					c-0.5,0.1-0.5-0.3-0.5-0.7c0-0.6,0-1.3,0-1.9c0-0.6,0-1-0.8-1c-1,0-0.5-0.8-0.6-1.3c-0.1-0.5,0.2-1.2-0.8-1.2
					c-1,0-0.8,0.6-0.8,1.2c0,0.6,0.3,1.5-0.9,1.3c-0.4,0-0.4,0.3-0.4,0.6c0,0.6,0,1.2,0,1.8c0,0.6,0,1.2-0.9,1.1
					c-0.5-0.1-0.5,0.4-0.5,0.7c0,0.6,0,1.2,0,1.8c0,0.9,0.3,1.9-1.3,1.7c-0.4-0.1-0.4,0.3-0.4,0.6c0,0.6,0,1.2,0,1.8
					c0,0.8,0.1,1.6-1.1,1.4c-0.4-0.1-0.6,0.2-0.6,0.6c0,0.4,0,0.9,0,1.3c0.1,0.7-0.1,1.1-0.9,1c-1-0.2-1.3,0.3-1.2,1.2
					c0,0.3,0,0.5,0,0.8c0.2,1.3-0.3,1.7-1.6,1.6c-1.2,0-1.6-0.4-1.5-1.5c0.1-1.1,0.4-2.5-1.6-2.1c-0.4,0.1-0.5-0.3-0.5-0.6
					c0-0.5,0-1,0-1.4c0-0.6-0.1-1-0.8-0.8c-0.9,0.2-1-0.3-0.9-1c0-0.6,0-1.1,0-1.7c0.1-0.8-0.1-1.3-1-1.1c-0.5,0.1-0.7-0.2-0.7-0.7
					c0-0.8,0-1.6,0-2.3c0-0.7,0.1-1.3-1-1.2c-0.4,0.1-0.5-0.3-0.5-0.6c0-0.6,0-1.1,0-1.7c0-0.7,0.2-1.5-0.9-1.3
					c-0.5,0-0.4-0.5-0.4-0.8c0-0.9,0-1.7,0-2.6c0-0.7-0.1-1.2-1-1c-1,0.2-1.1-0.3-1.1-1.2c0.1-1.8,0-3.5,0-5.3
					c0-0.3-0.1-0.9,0.2-0.9c1.7,0,1-1.2,1.1-2c0.1-0.4,0-0.9,0-1.3c0-0.5,0.2-0.8,0.7-0.7c1,0.2,1.1-0.4,1.1-1.2c0-0.5,0-1,0-1.6
					c0-1-0.2-2.1,1.5-1.7c0.5,0.1,0.6-0.3,0.6-0.7c0-0.6,0.1-1.3,0-1.9c-0.2-1.2,0.3-1.5,1.5-1.5c1.1,0,1.5,0.3,1.3,1.4
					c-0.1,0.4,0,0.8,0,1.2c-0.1,1.1,0,1.9,1.4,1.6c0.5-0.1,0.7,0.3,0.6,0.7c0,1,0,1.9,0,2.9c0,0.6,0.1,1,0.8,0.9
					c0.7-0.1,0.9,0.2,0.9,0.9c0,0.4,0,0.9,0,1.3c0,2,0,2-1.9,2.1c-0.6,0-0.9,0.3-0.8,0.9c0.1,0.9-0.4,2.4,0.2,2.7
					c1.2,0.6,2.7,0.2,4.1,0.2c0.3,0,0.3-0.3,0.3-0.6c0-0.4,0.1-0.8,0-1.2c-0.2-1.1,0.2-1.6,1.4-1.4c1.1,0.2,1.5-0.2,1.3-1.3
					c-0.1-0.4,0-0.9,0-1.3c-0.1-1.3,0-2.2,1.7-1.9c0.6,0.1,0.7-0.3,0.7-0.8c0-0.7,0-1.5,0-2.2c0-1.1,0.2-2.2-1.5-1.8
					c-0.4,0.1-0.6-0.2-0.6-0.6c0-0.7,0-1.4,0-2.1c0-0.6,0.1-1.3-0.9-1.2c-0.5,0.1-0.5-0.4-0.5-0.7c0-0.6,0-1.3,0-1.9
					c0-0.6,0.2-1.4-0.9-1.2c-0.4,0.1-0.4-0.3-0.4-0.6c0-0.5-0.1-1,0-1.6c0.1-1.1-0.1-1.9-1.5-1.6c-0.7,0.1-0.9-0.2-0.9-0.9
					c0-0.6,0-1.1,0-1.7c0-0.6,0-1-0.8-1c-0.9,0-0.6-0.8-0.6-1.3c0.1-1.1,0-1.9-1.5-1.7c-0.5,0.1-0.7-0.3-0.6-0.7
					c0-0.7-0.1-1.4,0-2.1c0.1-1.1-0.3-1.4-1.4-1.4c-1.1,0-1.5,0.3-1.3,1.4c0.1,0.6,0,1.1,0,1.7c0,0.9,0.1,1.7-1.2,1.5
					c-0.4-0.1-0.4,0.3-0.4,0.6c0,0.6,0,1.1,0,1.7c0.1,0.8-0.1,1.4-1.1,1.2c-0.6-0.1-0.7,0.3-0.7,0.8c0,0.5,0,1,0,1.4
					c0.1,0.7-0.3,0.7-0.9,0.7c-0.5,0-0.9,0-0.9-0.7c0-2.6,0-5.3,0-7.9c0-0.5,0.2-0.8,0.7-0.8c1,0.1,1-0.4,1-1.2c0-0.6,0-1.1,0-1.7
					c0-0.6,0-1.1,0.9-1.1c0.8,0,0.5-0.7,0.5-1.1c0-0.8-0.1-1.7,1.2-1.5c0.5,0.1,0.6-0.3,0.6-0.8c0-0.7,0-1.4,0-2.1
					c0-0.8,0-1.5,1.1-1.3c0.5,0.1,0.6-0.3,0.5-0.7c0-0.6,0-1.1,0-1.7c0-0.5-0.1-0.8-0.6-0.7c-0.9,0.1-1.1-0.4-1-1.1
					c0-0.6,0-1.2,0-1.8c0.1-0.9,0-1.4-1.1-1.3c-0.9,0.1-0.6-0.6-0.6-1.1c-0.1-0.7,0.3-1.6-1-1.5c-0.4,0-0.4-0.4-0.4-0.7
					c0-0.6,0-1.3,0-1.9c0.1-0.8-0.1-1.4-1.1-1.2c-0.6,0.1-0.7-0.4-0.7-0.8c0-2.6,0-5.2,0-7.8c0-0.8,0.4-0.8,1-0.8
					c0.6,0,0.9,0.2,0.8,0.8c0,0.4,0,0.8,0,1.2c-0.1,0.7,0.1,1.1,0.9,1c0.7-0.1,0.9,0.2,0.9,0.9c0,0.5,0,1,0,1.6
					c-0.1,0.7,0.1,1.2,1,1c0.6-0.1,0.7,0.3,0.7,0.8c0,0.9,0.1,1.8,0,2.7c-0.1,1.2,0.7,1,1.4,1.1c0.8,0,1.5,0,1.3-1.1
					c-0.1-0.4,0-0.9,0-1.3c-0.1-1.1-0.2-2.2,1.5-1.9c0.7,0.1,0.5-0.5,0.6-0.9c0.1-0.8-0.5-2,1.1-2c0.3,0,0.2-0.4,0.2-0.7
					c0-0.4,0-0.9,0-1.3c-0.1-1.1,0.1-1.7,1.4-1.5c0.7,0.1,1-0.2,0.9-1c0-0.6,0-1.3,0-1.9c0-0.6,0-1.1,0.8-1c0.5,0,0.6-0.2,0.6-0.7
					c0-0.7,0-1.5,0-2.2c0-0.6,0-1.1,0.8-0.9c0.5,0.1,0.6-0.3,0.6-0.7c0-0.6,0-1.1,0-1.7c-0.1-1.1,0.1-1.8,1.4-1.5
					c0.6,0.1,0.7-0.3,0.7-0.8c0-0.9-0.1-1.8,0-2.7c0.1-0.9-0.2-1.4-1.2-1.2c-1,0.2-1.4-0.2-1.2-1.2c0.1-0.4,0-0.8,0-1.2
					c0-2,0-2-2-2.2c-0.7,0-0.7-0.4-0.7-0.9c-0.1-2.4-0.1-2.4-2.4-2.4c-2.3,0-2.2,0-2.3,2.2c-0.1,1.3,0.3,1.8,1.6,1.6
					c0.9-0.2,1.2,0.2,1.1,1.1c-0.1,0.7-0.1,1.4,0,2.1c0.1,0.8-0.1,1.3-1,1.1c-0.6-0.1-0.7,0.3-0.7,0.8c0,0.9,0,1.7,0,2.6
					c0,0.7-0.1,1.2-1,1c-0.9-0.2-1.2,0.3-1.1,1.2c0.1,0.4,0,0.9,0,1.3c0,1.7-0.8,2.2-2.4,1.7c-0.4-0.1-0.4-0.4-0.4-0.7
					c0-0.6,0-1.2,0-1.8c0.1-1.1,0.1-2-1.5-1.7c-0.6,0.1-0.6-0.3-0.6-0.7c0-0.7,0-1.4,0-2.1c0-0.9,0.3-1.9-1.3-1.7
					c-0.5,0.1-0.4-0.4-0.5-0.8c0-0.7,0-1.4,0-2.1c0-0.6,0-1.1-0.8-1c-0.5,0.1-0.5-0.3-0.5-0.7c0-2,0-4.1,0-6.1
					c0-0.9,0.6-0.7,1.1-0.7c0.8,0.1,1.1-0.2,1-1c-0.1-0.8,0-1.6,0-2.5c0-0.6,0-1.2,0.8-1.1c0.5,0,0.5-0.3,0.5-0.7c0-0.7,0-1.4,0-2.1
					c0-0.3-0.1-0.8,0.5-0.7c1,0.2,1-0.5,1-1.2c0-0.6,0-1.2,0-1.8c-0.1-0.8,0-1.4,1.1-1.2c0.6,0.1,0.6-0.3,0.6-0.7c0-0.6,0-1.1,0-1.7
					c0-0.8-0.2-1.7,1.2-1.5c0.8,0.1,0.5-0.7,0.5-1.1c-0.1-1,0-1.7,1.3-1.5c0.5,0.1,0.8-0.2,0.8-0.7c0-0.4,0-0.9,0-1.3
					c0-1.8,0.8-2.4,2.6-1.9c0.4,0.1,0.4,0.4,0.4,0.7c0,0.5,0,1,0,1.6c-0.1,1.1,0,2,1.5,1.7c0.7-0.1,0.6,0.5,0.6,0.9
					c0,0.9-0.3,1.9,1.3,1.7c0.4-0.1,0.5,0.3,0.5,0.6c0,0.6,0,1.1,0,1.7c0,0.9-0.2,1.8,1.2,1.6c0.5-0.1,0.5,0.4,0.5,0.7
					c0,0.7,0,1.4,0,2.1c0,0.7-0.3,1.6,1,1.4c0.4,0,0.4,0.4,0.4,0.7c0,0.6,0,1.3,0,1.9c0,0.3-0.1,0.8,0.3,0.8c1.5,0,1.1,1,1.1,1.8
					c0,0.6,0.1,0.9,0.8,0.9c0.8,0,0.8-0.4,0.8-1c0-0.8-0.3-1.7,1-1.7c0.3,0,0.3-0.4,0.3-0.6c0-0.5,0.1-1,0-1.6
					c-0.1-1,0.2-1.5,1.3-1.3c0.5,0.1,0.8-0.1,0.8-0.7c0-0.6,0-1.2,0-1.8c0-0.9-0.3-2,1.3-1.7c0.4,0.1,0.5-0.3,0.5-0.6
					c0-0.6,0-1.1,0-1.7c0-0.9-0.2-1.7,1.2-1.6c0.8,0.1,0.5-0.8,0.5-1.2c0-0.9,0.1-1.5,1.2-1.3c0.6,0.1,0.8-0.2,0.8-0.8
					c0-0.6,0.1-1.1,0-1.7c-0.2-1.2,0.3-1.4,1.4-1.4c1.2,0,1.6,0.4,1.4,1.5c-0.1,0.5,0,1,0,1.6c-0.1,0.7,0.2,1,0.9,0.9
					c0.9-0.2,1,0.4,0.9,1.1c-0.1,1,0,1.7,1.3,1.5c0.5-0.1,0.8,0.1,0.8,0.7c0,0.5,0,1,0,1.6c-0.1,1-0.1,1.9,1.3,1.6
					c0.5-0.1,0.6,0.2,0.6,0.6c0,0.7,0,1.4,0,2.1c0,0.7-0.3,1.6,1,1.5c0.4,0,0.3,0.4,0.3,0.7c0,0.6,0,1.3,0,1.9
					c0,0.3-0.1,0.8,0.4,0.8c1.2-0.1,0.9,0.7,0.9,1.4c0,0.6,0,1.3,0,1.9c-0.1,0.9,0.1,1.5,1.1,1.3c0.4-0.1,0.6,0.2,0.6,0.6
					c0,2.1,0,4.1,0,6.2c0,0.3-0.1,0.7-0.5,0.6c-1.1-0.2-0.9,0.6-0.9,1.2c0,0.6,0,1.3,0,1.9c0,0.3,0.1,0.7-0.3,0.7
					c-1.4-0.1-1,0.9-1,1.5c0,0.5-0.1,1,0,1.6c0.1,1-0.1,1.6-1.3,1.4c-0.6-0.1-0.8,0.2-0.8,0.8c0,0.6,0,1.1,0,1.7
					c0,1.7,0,1.7-1.7,1.7c-2,0-1.7,0.3-1.7-1.7c0-0.4,0-0.9,0-1.3c0.1-0.9-0.1-1.3-1.1-1.2c-0.8,0.1-1.1-0.2-1-1
					c0.1-0.6,0-1.3,0-1.9c0-0.7,0.3-1.7-1-1.5c-0.1,0-0.3-0.1-0.3-0.2c-0.2-1.2-0.2-2.5,0-3.7c0.1-0.6,0.8-0.3,1.2-0.3
					c0.9,0.1,1.1-0.2,1.1-1.1c0-2.7,0-2.7-2.7-2.7c-1.7,0-1.8,0-1.7,1.7c0.1,1.2-0.2,1.8-1.5,1.5c-0.6-0.1-1,0.1-0.9,0.8
					c0,0.4,0,0.9,0,1.3c0,0.7,0.2,1.6-0.2,2.1c-0.3,0.6-1.3,0.2-1.9,0.2c-0.5,0-0.7,0.2-0.7,0.7c0,0.8,0,1.6,0,2.3
					c-0.1,1.1,0,2,1.5,1.7c0.5-0.1,0.6,0.3,0.5,0.6c0,0.7,0,1.5,0,2.2c0,0.6,0,1.1,0.8,1c0.5-0.1,0.5,0.3,0.5,0.7c0,0.6,0,1.3,0,1.9
					c0,0.6-0.1,1.2,0.9,1.2c0.4,0,0.5,0.3,0.5,0.6c0,0.5,0,1,0,1.4c-0.1,1.1-0.2,2.2,1.5,1.9c0.4-0.1,0.6,0.3,0.6,0.7
					c0,0.6,0,1.3,0,1.9c0,0.6,0.1,1,0.9,0.9c0.7-0.1,0.9,0.2,0.9,0.9c0,0.4,0,0.8,0,1.2c-0.1,0.6,0.2,0.9,0.8,0.8
					c1.2-0.2,1.4,0.4,1.3,1.4c-0.1,0.5,0.1,1,0,1.4c-0.2,1.2,0.3,1.5,1.5,1.5c1,0,1.3-0.4,1.2-1.3c-0.1-0.6,0-1.1,0-1.7
					c-0.1-1.1,0.1-1.9,1.5-1.6c0.4,0.1,0.6-0.2,0.6-0.6c0-0.7,0-1.4,0-2.1c0-0.3-0.1-0.8,0.3-0.7c1.5,0,1-1,1.1-1.8
					c0-0.7-0.1-1.3,0.9-1.3c1,0,0.8,0.6,0.8,1.2C53.5,109.9,53.5,111.1,53.5,112.3z M19.5,129.1c0,2,0,4.1,0,6.1
					c0,0.7,0.2,1.1,1,1.1c2,0,2,0,2,2c0,0.2,0,0.3,0,0.5c0,0.4,0.2,0.7,0.6,0.6c1.5-0.3,1.4,0.6,1.4,1.7c0,0.4-0.3,1.2,0.4,1.1
					c1.2,0,0.9,0.7,1,1.4c0,0.8-0.3,1.7,1.1,1.7c0.4,0,0.3,0.5,0.3,0.7c0,0.6,0,1.3,0,1.9c0,0.8,0.1,1.3,1,1.2
					c0.4-0.1,0.8,0.1,0.7,0.5c-0.4,2,1,3.8,0.7,5.8c-0.2,1.2,0.3,1.4,1.4,1.4c1.8-0.1,1.8,0,1.8-1.8c0-0.5,0-1,0-1.4
					c0-0.3,0-0.7,0.4-0.7c0.7,0,0.6-0.5,0.6-0.9c0-0.7,0-1.5,0-2.2c0-0.5,0.2-0.8,0.7-0.7c1,0.1,1-0.5,1-1.2c0-0.6,0-1.3,0-1.9
					c0-0.3,0-0.7,0.4-0.7c1.3,0,1-0.9,1-1.6c0-0.5-0.3-1.3,0.3-1.3c1.5,0,1-1,1-1.7c0-0.9,0.1-1.4,1.2-1.2c0.7,0.1,1-0.2,0.9-0.9
					c0-0.3,0-0.7,0-1c-0.2-1.1,0.3-1.4,1.3-1.2c0.3,0,0.5,0,0.8,0c0.8,0.1,1-0.2,1-1c0-4.1,0-8.1,0-12.2c0-0.8-0.3-1-1-1
					c-2,0-2,0-2-2.1c0-0.1,0-0.3,0-0.4c0.1-0.5-0.2-0.8-0.7-0.7c-1.4,0.3-1.5-0.6-1.4-1.6c0-0.4,0.3-1.2-0.3-1.2c-1.4,0-1-1-1-1.7
					c0-0.7,0.2-1.4-1-1.4c-0.5,0-0.4-0.5-0.4-0.8c0-0.7,0-1.5,0-2.2c0-0.3,0.1-0.7-0.3-0.7c-1.8,0.1-1.2-1.2-1.3-2.1
					c-0.1-0.6,0.3-1.5-0.2-1.7c-1.2-0.3-0.8-1.1-0.8-1.8c0-2.3-0.2-2.5-2.6-2.2c-0.4,0.1-0.7,0.2-0.6,0.6c0.4,2.2-1.1,4.2-0.7,6.3
					c0.1,0.4-0.1,0.8-0.6,0.7c-1-0.1-1.2,0.4-1.1,1.2c0.1,0.6,0,1.3,0,1.9c0,0.3,0,0.6-0.3,0.6c-1.5-0.1-1,1-1.1,1.8
					c-0.1,0.4,0.2,1.1-0.3,1.1c-1.6,0.1-1,1.2-1.1,2c-0.1,0.6,0.1,1.2-0.8,1.1c-1.2-0.2-1.2,0.5-1.2,1.4c0,1.8,0,1.9-1.8,1.8
					c-1,0-1.2,0.3-1.2,1.3C19.5,125.2,19.5,127.1,19.5,129.1z" />
            <path fill="#EE4124" d="M20.6,1.9c1,0,2.4-0.4,3,0.1C24.4,2.6,23.9,4,23.9,5c0,0.7,0.1,1.2,1,1c0.6-0.1,0.8,0.2,0.7,0.7
					c0,0.3,0,0.6,0,0.9c0,0.6-0.2,1.4,0.1,1.9c0.3,0.7,1.2,0.3,1.8,0.3c0.6,0,0.6,0.4,0.6,0.8c0,1,0,2,0,3c0,0.5,0.1,0.9,0.7,0.8
					c0.9-0.1,1,0.4,0.9,1.1c0,0.6,0,1.1,0,1.7c0,1.7,0.5,2.1,2.2,1.7c0.6-0.1,0.5-0.5,0.5-0.9c0-0.9,0-1.8,0-2.7
					c0-0.6,0.1-1,0.8-0.9c0.7,0.1,0.8-0.3,0.8-0.9c0-0.9,0-1.7,0-2.6c-0.1-0.8,0.2-1,1-1c1.7,0,1.7,0,1.7-1.7c0-0.3,0-0.5,0-0.8
					c-0.1-1,0.1-1.6,1.3-1.4c0.6,0.1,0.8-0.2,0.8-0.8c0-0.9,0-1.7,0-2.6c0-0.6,0.2-0.8,0.8-0.7c0.5,0,1,0,1.4,0
					c1.2,0,2.6-0.4,3.4,0.2c0.8,0.5,0.2,2.1,0.2,3.2c0,0.9,0.6,0.8,1.1,0.8c0.8-0.1,1.1,0.2,1,1c0,0.3,0,0.5,0,0.8c0,2,0,2,1.9,2.1
					c0.6,0,0.7,0.2,0.7,0.8c0,1,0,1.9,0,2.9c0,0.6,0.1,1,0.8,0.9c0.8-0.1,1,0.3,0.9,1c0,0.5,0,1,0,1.4c0,1.8,0,1.8,1.8,2.1
					c0.4,0,0.6,0.2,0.6,0.6c0,1.5,0,3,0,4.5c0,0.9-0.6,0.7-1.1,0.6c-1.1-0.1-1.5,0.3-1.3,1.4c0.1,0.4,0,0.9,0,1.3
					c0,0.4-0.2,0.7-0.6,0.6c-1.1-0.2-1.2,0.4-1.1,1.3c0,0.4,0,0.8,0,1.2c0,1.9,0,1.9-1.9,2c-0.6,0-0.8,0.2-0.8,0.8c0,0.5,0,1,0,1.4
					c0.1,1.1,0.1,2-1.5,1.7c-0.5-0.1-0.6,0.3-0.6,0.7c0,0.8,0,1.6,0,2.5c0,0.5,0.2,1-0.7,1.1c-0.6,0-0.3,0.7-0.3,1.1
					c-0.1,2.6,0,2.5-2.6,2.4c-0.7,0-0.9-0.3-0.9-0.9c0-0.6,0-1.3,0-1.9c0-0.3,0-0.7-0.4-0.7c-1.2,0.1-0.9-0.7-1-1.4c0-0.5,0-1,0-1.4
					c0.1-1-0.1-1.7-1.3-1.5c-0.6,0.1-0.8-0.2-0.7-0.7c0-0.3,0-0.7,0-1c0-1.9,0-1.9-1.9-2c-0.6,0-0.8-0.3-0.8-0.9c0-0.7,0-1.4,0-2.1
					c0-0.9,0.2-1.8-1.2-1.6c-0.3,0.1-0.4-0.2-0.4-0.5c0-0.4-0.1-0.9,0-1.3c0.1-1-0.1-1.5-1.4-1.5c-1.3,0-1.5,0.4-1.4,1.6
					c0.1,0.9,0.4,2-1.3,1.8C28,28,28,28.5,28,28.7c0,1-0.1,1.9,0,2.9c0,0.8-0.3,1.1-1,0.9c-1.4-0.3-1.6,0.4-1.5,1.6
					c0.1,0.4,0,0.9,0,1.3c0.1,0.7-0.1,1.1-0.9,1c-0.7-0.1-0.8,0.2-0.8,0.8c0,0.7,0,1.4,0,2.1c0,0.6,0.3,1.4-0.9,1.4
					c-0.6,0-0.4,0.7-0.4,1c-0.1,2.5-0.1,2.4-2.6,2.5c-1.1,0-1.4-0.3-1.3-1.3c0.1-0.5,0-1,0-1.6c0-0.3,0-0.7-0.4-0.7
					c-1.2,0.1-0.9-0.7-0.9-1.3c0-0.5,0-1,0-1.6c0.1-0.8,0-1.6-1.2-1.3c-0.4,0.1-0.6-0.1-0.6-0.6c0-0.4,0-0.9,0-1.3
					c0.2-1.4,0-2.3-1.8-2c-0.5,0.1-0.6-0.2-0.6-0.7c0-1,0-2,0-3c0-0.5,0-0.9-0.7-0.8c-1,0.2-1.1-0.4-1-1.2c0-0.3,0-0.6,0-0.9
					c0.1-0.9-0.2-1.4-1.2-1.2c-1.1,0.2-1.3-0.3-1.3-1.3c0.1-1.1,0.1-2.3,0-3.4c-0.1-0.9,0.3-1.3,1.2-1.1c1,0.2,1.4-0.2,1.3-1.3
					c-0.1-0.7,0-1.4,0-2.1c0-0.8,0.1-1.3,1-1.2c0.6,0.1,0.7-0.3,0.7-0.8c0-0.9,0-1.8,0-2.7c-0.1-0.8,0.2-1.1,1-1
					c1.1,0.2,1.6-0.2,1.4-1.4c-0.1-0.5,0-1,0-1.4c-0.1-0.8,0.1-1.3,1-1.1c0.7,0.1,0.8-0.3,0.7-0.8c0-0.8,0.1-1.6,0-2.3
					c-0.1-0.8,0.2-1.1,1-1C19.2,1.9,19.9,1.9,20.6,1.9C20.6,1.9,20.6,1.9,20.6,1.9z M45.7,21.9c0-0.6,0-1.3,0-1.9
					c0-0.3,0.1-0.7-0.4-0.7c-1.3,0.1-1-0.8-1-1.4c0-0.8,0-1.6,0-2.5c0-0.6-0.1-1-0.8-0.9c-0.8,0.1-1-0.3-0.9-1c0-0.4,0-0.9,0-1.3
					c0.1-0.7-0.1-1-0.9-1c-0.7,0-1,0.2-0.9,1c0,0.5,0,1,0,1.6c0,0.4-0.1,0.8-0.6,0.7c-1.1-0.1-1.1,0.5-1,1.3c0,0.7,0,1.4,0,2.1
					c0,0.7,0.3,1.6-1,1.5c-0.4,0-0.3,0.4-0.3,0.7c0,1.3,0,2.5,0,3.8c0,0.3,0,0.8,0.5,0.7c1.1-0.1,0.9,0.6,0.9,1.3c0,0.6,0,1.1,0,1.7
					c0,0.4,0.2,0.7,0.6,0.6c1-0.2,1.1,0.5,1,1.2c0,0.5,0,1,0,1.6c0,0.6,0,1.1,0.9,1.2c0.9,0,1-0.4,0.9-1.1c0-0.6,0-1.1,0-1.7
					c-0.1-0.8,0.1-1.3,1-1.1c0.6,0.1,0.8-0.3,0.7-0.8c0-0.4,0-0.8,0-1.2c0-0.7-0.4-1.7,1.1-1.6c0.4,0,0.3-0.4,0.3-0.6
					C45.7,23.2,45.7,22.5,45.7,21.9z M16.4,21.8c0,0.6,0,1.1,0,1.7c-0.1,0.7,0.1,1.2,1,1c0.6-0.1,0.7,0.3,0.7,0.8c0,0.7,0,1.4,0,2.1
					c0,0.4,0.1,0.7,0.6,0.7c1.3-0.2,1.2,0.6,1.2,1.5c0,0.5,0,1,0,1.6c-0.1,0.7,0.2,0.9,0.9,0.9c0.7,0,0.9-0.3,0.9-0.9
					c0-0.7,0-1.5,0-2.2c0-0.5,0.1-0.9,0.7-0.8c0.9,0.1,1-0.3,1-1.1c0-0.6,0-1.2,0-1.8c0-0.4,0.1-0.7,0.6-0.7
					c1.3,0.2,1.2-0.7,1.2-1.5c0-1,0-2,0-3c0-0.3,0.1-0.8-0.4-0.8c-1.7,0.3-1.3-0.9-1.3-1.8c0-0.7,0-1.5,0-2.2c0-0.6-0.1-0.9-0.8-0.9
					c-0.8,0.1-0.9-0.3-0.9-1c0-0.4,0-0.9,0-1.3c0.1-0.7-0.2-1-0.9-1c-0.8,0-0.9,0.3-0.8,0.9c0,0.6,0,1.1,0,1.7
					c0,0.3-0.1,0.7-0.5,0.6c-1.5-0.2-1.3,0.8-1.3,1.7c0,0.7,0,1.5,0,2.2c0,0.6-0.1,1-0.8,0.9c-0.8-0.1-0.9,0.3-0.9,1
					C16.4,20.7,16.4,21.3,16.4,21.8z" />
            <path fill="#EE4124"
              d="M41.8,256.3c-2.9,0-2.9,0-2.9-2.9c0-0.9-0.1-1.5-1.2-1.3c-0.7,0.1-0.9-0.3-0.9-0.9c0-0.3,0-0.6,0-0.9
					c0-1.9,0-1.9-1.9-2c-0.7,0-0.8-0.3-0.8-0.9c0-0.7,0-1.5,0-2.2c0-0.8,0.1-1.7-1.2-1.5c-0.5,0.1-0.5-0.4-0.5-0.7c0-1,0-1.9,0-2.9
					c0.1-1.3-0.9-0.8-1.5-0.9c-0.6-0.1-1.3-0.2-1.2,0.9c0.1,0.7,0,1.4,0,2.1c0,0.8,0.2,1.7-1.2,1.5c-0.5-0.1-0.5,0.4-0.5,0.7
					c0,1,0,1.9,0,2.9c0,0.7-0.2,1.1-0.9,0.9c-1.3-0.2-1.7,0.4-1.5,1.6c0.1,0.4,0,0.9,0,1.3c0,0.7-0.1,1.1-0.9,1
					c-0.6-0.1-0.9,0.2-0.8,0.8c0,0,0,0.1,0,0.1c0,1,0.3,2.4-0.2,3c-0.7,0.7-2.1,0.2-3.2,0.2c-3.1,0-3.1,0-3.1-3
					c0-0.9-0.1-1.3-1.1-1.2c-0.5,0.1-0.7-0.2-0.7-0.7c0-0.3,0-0.7,0-1c0-1.9,0-1.9-1.8-2.1c-0.6-0.1-0.6-0.4-0.6-0.8
					c0-1,0-1.9,0-2.9c0-0.6-0.1-1-0.8-0.9c-0.8,0.1-0.9-0.4-0.9-1c0-0.8-0.1-1.6,0-2.3c0.1-0.9-0.3-1.3-1.2-1.1
					c-1,0.2-1.4-0.3-1.3-1.3c0.1-1.2,0.1-2.3,0-3.5c0-0.8,0.2-1.3,1.1-1.1c1.2,0.2,1.5-0.4,1.4-1.5c0-0.3,0-0.6,0-0.9
					c-0.1-0.6,0.2-1,0.9-0.9c0.7,0.1,0.9-0.3,0.8-0.9c0-0.9,0-1.7,0-2.6c-0.1-0.8,0.3-1.1,1-1c1.2,0.2,1.5-0.3,1.4-1.4
					c-0.1-0.5,0-1,0-1.4c-0.1-0.8,0.1-1.2,1-1c0.6,0.1,0.8-0.2,0.8-0.8c0-0.8,0-1.6,0-2.3c0-0.6,0-1.1,0.8-1
					c0.4,0.1,0.5-0.2,0.5-0.6c0-0.4,0-0.8,0-1.2c0-1.8,0-1.8,1.9-1.8c1.9,0,1.9,0,2,1.9c0,0.7-0.5,1.9,1.1,1.8
					c0.3,0,0.3,0.4,0.3,0.6c0,0.7,0,1.4,0,2.1c0,0.8-0.2,1.6,1.1,1.4c0.5-0.1,0.6,0.3,0.6,0.7c0,0.4,0,0.8,0,1.2
					c0,0.6-0.1,1.3,0.1,1.8c0.3,0.6,1.1,0.2,1.7,0.3c0.5,0,0.6,0.3,0.6,0.7c0,1,0,2,0,3c0,0.5,0.1,0.8,0.7,0.7
					c0.9-0.2,1,0.4,0.9,1.1c0,0.2,0,0.3,0,0.5c0,1.6,0.7,2.1,2.3,1.7c0.4-0.1,0.5-0.3,0.5-0.6c0-0.5,0-1,0-1.6c-0.1-0.7,0.1-1.2,1-1
					c0.6,0.1,0.7-0.3,0.7-0.8c0-0.5,0-1,0-1.4c0-2,0-2.1,2-2.2c0.6,0,0.7-0.3,0.7-0.8c0-0.5,0-1,0-1.6c-0.1-1,0-1.8,1.4-1.6
					c0.5,0.1,0.7-0.2,0.7-0.7c0-0.7,0-1.4,0-2.1c0-0.7-0.2-1.5,1-1.4c0.3,0,0.4-0.3,0.4-0.6c0-0.5,0.1-1,0-1.4
					c-0.2-1.4,0.3-1.7,1.6-1.6c1.8,0.1,1.8,0,1.8,1.9c0,0.7-0.6,1.8,0.9,1.8c0.1,0,0.1,0.4,0.1,0.6c0,0.6,0,1.1,0,1.7
					c-0.1,1.1-0.1,2.1,1.5,1.8c0.5-0.1,0.6,0.2,0.6,0.6c0,0.3,0,0.7,0,1c0,2,0,2,2,2.2c0.5,0.1,0.7,0.2,0.7,0.7c0,1,0,1.9,0,2.9
					c0,0.6,0.1,1,0.8,0.9c0.8-0.1,1,0.3,0.9,1c0,0.4,0,0.8,0,1.2c-0.1,0.9,0.3,1.3,1.2,1.1c1.1-0.2,1.3,0.4,1.2,1.3
					c-0.1,1.2-0.1,2.3,0,3.5c0,0.8-0.2,1.2-1.1,1.1c-1.1-0.2-1.5,0.2-1.4,1.3c0.1,0.6,0,1.1,0,1.7c0,0.9,0.1,1.7-1.2,1.5
					c-0.6-0.1-0.5,0.4-0.5,0.8c0,0.9-0.1,1.7,0,2.6c0.1,0.9-0.3,1.3-1.2,1.1c-1.3-0.2-1.7,0.3-1.5,1.5c0.1,0.4,0,0.8,0,1.2
					c0.1,0.9-0.1,1.3-1.1,1.2c-0.8-0.1-1.1,0.2-1,1c0,0.1,0,0.2,0,0.3C44.7,256.3,44.7,256.3,41.8,256.3z M16.4,236c0,0.5,0,1,0,1.4
					c-0.1,0.8,0,1.5,1.1,1.3c0.6-0.1,0.6,0.4,0.6,0.8c0,1.1,0,2.2,0,3.4c0,0.6,0.1,1,0.8,0.9c0.8-0.1,1,0.3,0.9,1c0,0.5,0,1,0,1.4
					c-0.1,0.7,0.3,0.9,0.9,0.8c0.6,0,0.9-0.1,0.8-0.8c0-0.4,0-0.9,0-1.3c0-0.7,0-1.3,1-1.2c0.6,0.1,0.7-0.3,0.7-0.8
					c0-1.1,0-2.2,0-3.4c0-0.6,0.2-1,0.9-0.9c0.7,0.1,0.9-0.2,0.9-0.9c0-1.2,0-2.4,0-3.6c0-0.5-0.2-0.8-0.7-0.8c-1,0.1-1-0.4-1-1.2
					c0-0.5,0-0.9,0-1.4c0-0.4-0.1-0.7-0.6-0.6c-1.1,0.2-1.1-0.5-1.1-1.3c0-0.6,0-1.1,0-1.7c0.1-0.7-0.2-0.9-0.9-0.9
					c-0.7,0-0.9,0.3-0.9,0.9c0,0.7,0,1.5,0,2.2c0,0.6-0.2,0.8-0.7,0.7c-1-0.2-1.1,0.4-1,1.1c0,0.4,0,0.9,0,1.3
					c0,0.5-0.1,0.9-0.7,0.8c-1-0.1-1,0.5-1,1.2C16.4,235,16.4,235.5,16.4,236z M45.7,235.9c-0.4-0.8,0.9-2.5-1.2-2.7
					c-0.1,0-0.1-0.4-0.1-0.6c0-0.5,0-1,0-1.6c0-0.6-0.1-1-0.8-0.9c-0.8,0.1-1-0.3-0.9-1c0-0.6,0-1.2,0-1.8c0-0.7-0.1-1.1-1-1.1
					c-0.8,0-0.9,0.4-0.9,1c0,0.6,0,1.3,0,1.9c0,0.6-0.1,1-0.8,0.9c-0.8-0.1-0.9,0.3-0.8,0.9c0,0.5,0,1,0,1.4c0,0.3,0.1,0.8-0.4,0.8
					c-1.3,0-1,0.8-1,1.6c0,0.9,0,1.8,0,2.7c0,0.6,0,1.1,0.9,1.1c0.6-0.1,0.5,0.4,0.5,0.8c0,1.2,0,2.3,0,3.5c0,0.4,0,0.8,0.6,0.8
					c1-0.1,1.2,0.4,1.1,1.2c0,0.3,0,0.5,0,0.8c0,0.6-0.2,1.3,0.9,1.3c1.1,0,1-0.6,0.9-1.2c0-0.3,0-0.6,0-0.9c-0.1-0.7,0-1.3,1-1.2
					c0.6,0.1,0.7-0.2,0.7-0.8c0-1,0-2.1,0-3.1c0-0.6-0.2-1.4,0.9-1.2c0.4,0.1,0.4-0.3,0.4-0.6C45.7,237.4,45.7,236.7,45.7,235.9z" />
            <path fill="#EE4124" d="M21.5,51.3c0-0.5,0-1,0-1.6c-0.1-0.8,0.1-1.4,1.1-1.2c0.6,0.1,0.6-0.3,0.6-0.7c0-0.7,0.1-1.4,0-2.1
					c-0.1-0.9,0.3-1.3,1.1-1.1c1,0.2,1.4-0.3,1.3-1.3c-0.1-0.3,0-0.7,0-1c0-1.5,0.5-1.9,2-1.6c0.4,0.1,0.5,0.3,0.5,0.6
					c0,0.4,0,0.8,0,1.2c0,1.8,0,1.9,1.8,2c0.5,0,0.6,0.3,0.6,0.7c0,0.8,0,1.6,0,2.5c-0.1,1.1,0.8,0.7,1.3,0.7c0.5,0,1.2,0.2,1.1-0.7
					c0-0.4,0-0.9,0-1.3c-0.2-1.3,0-2.2,1.7-1.9c0.5,0.1,0.7-0.2,0.7-0.7c0-0.6,0.1-1.3,0-1.9c-0.1-0.9,0.2-1.3,1.2-1.3
					c1,0,1.4,0.2,1.2,1.2c0,0.3,0,0.5,0,0.8c-0.1,1.2,0,2.3,1.7,1.9c0.5-0.1,0.8,0.2,0.7,0.7c0,0.5,0,1,0,1.6
					c-0.1,1.1,0.1,1.9,1.5,1.6C42,48.5,42,49,42,49.4c0,1.2,0,2.4,0,3.6c0,0.8-0.2,1.2-1,1c-0.9-0.1-1.2,0.2-1.1,1.1
					c0,0.3,0,0.7,0,1c0.2,1.3-0.2,2.1-1.7,1.8c-0.5-0.1-0.8,0.2-0.8,0.7c0,0.6,0,1.1,0,1.7c0,1.4-0.6,1.8-2,1.5
					c-0.3-0.1-0.4-0.3-0.4-0.5c0-0.4,0-0.9,0-1.3c0.1-1.3,0.1-2.5-1.8-2.1c-0.4,0.1-0.6-0.2-0.6-0.6c0-0.6,0-1.3,0-1.9
					c0-1.2-0.8-1.7-2-1.3c-0.3,0.1-0.4,0.3-0.4,0.6c0,0.5,0,1,0,1.4c0.1,1.2,0,2.3-1.7,1.9c-0.6-0.1-0.7,0.3-0.7,0.8
					c0,0.5,0,1,0,1.6c0,1.5-0.5,1.9-2,1.6c-0.4-0.1-0.5-0.3-0.5-0.6c0-0.4,0-0.9,0-1.3c0-1.8,0-1.8-1.7-2c-0.5,0-0.7-0.2-0.7-0.7
					c0-0.6,0-1.2,0-1.8c0-0.8,0.2-1.6-1.1-1.4c-0.7,0.1-0.5-0.5-0.6-0.9C21.4,52.5,21.5,51.9,21.5,51.3z M36.9,51.6c0-0.5,0-1,0-1.6
					c0-0.5-0.1-0.8-0.7-0.8c-0.5,0-0.8,0.1-0.8,0.7c0,1,0,2.1,0,3.1c0,0.6,0.2,0.7,0.8,0.7c0.6,0,0.7-0.3,0.7-0.8
					C36.8,52.5,36.9,52,36.9,51.6z M27.3,51.6c0-0.6,0-1.1,0-1.7c0-0.5-0.1-0.7-0.7-0.7c-0.5,0-0.8,0.1-0.8,0.7c0,1.1,0,2.2,0,3.2
					c0,0.6,0.3,0.6,0.8,0.6c0.5,0,0.7-0.1,0.7-0.6C27.3,52.6,27.3,52.1,27.3,51.6z" />
            <path fill="#EE4124" d="M42,206.9c0,0.4,0,0.8,0,1.2c0.1,1.1,0,1.9-1.4,1.6c-0.5-0.1-0.7,0.2-0.6,0.7c0,0.4,0,0.8,0,1.2
					c0.2,1.3,0,2.3-1.8,2c-0.5-0.1-0.7,0.2-0.7,0.7c0,0.6-0.1,1.3,0,1.9c0.1,1-0.3,1.3-1.3,1.3c-0.9,0-1.2-0.3-1.1-1.2
					c0-0.4,0-0.8,0-1.2c0.2-1.2-0.1-1.8-1.5-1.6c-0.7,0.1-1-0.2-0.9-0.9c0-0.5,0-1,0-1.6c0-1.4-0.7-1.8-2-1.4
					c-0.3,0.1-0.4,0.3-0.4,0.6c0,0.5,0,1,0,1.4c0.2,1.3-0.1,2.2-1.7,1.9c-0.5-0.1-0.7,0.2-0.7,0.7c0,0.6,0,1.1,0,1.7
					c0,1.5-0.6,1.9-2,1.5c-0.4-0.1-0.5-0.3-0.5-0.6c0-0.4,0-0.9,0-1.3c0.2-1.3,0-2.3-1.7-2c-0.5,0.1-0.7-0.2-0.7-0.7
					c0-0.6,0-1.1,0-1.7c0-0.8,0.2-1.7-1.2-1.5c-0.6,0.1-0.5-0.5-0.5-0.8c0-1.1,0-2.2,0-3.2c0-0.9-0.1-1.7,1.2-1.5
					c0.4,0.1,0.5-0.2,0.5-0.6c0-0.4,0-0.8,0-1.2c-0.2-1.3,0.1-2.1,1.6-1.8c0.6,0.1,0.8-0.2,0.7-0.7c0-0.6,0.1-1.1,0-1.7
					c-0.1-1.1,0.2-1.5,1.4-1.5c0.9,0.1,1.3,0.2,1.2,1.2c-0.1,0.4,0,0.8,0,1.2c-0.2,1.2,0.2,1.8,1.5,1.6c0.8-0.1,1,0.3,0.9,1
					c0,0.4,0,0.8,0,1.2c0,1.4,0.5,1.8,1.9,1.4c0.4-0.1,0.5-0.3,0.5-0.6c0-0.3,0-0.7,0-1c-0.1-1.2-0.1-2.3,1.7-1.9
					c0.5,0.1,0.7-0.2,0.7-0.7c0-0.6,0-1.1,0-1.7c0-1.5,0.4-1.8,1.9-1.5c0.4,0.1,0.5,0.3,0.5,0.6c0,0.4,0,0.8,0,1.2
					c0,1.8,0,1.9,1.8,2.1c0.5,0.1,0.7,0.3,0.6,0.7c0,0.4,0,0.8,0,1.2c-0.1,1-0.1,1.9,1.4,1.7c0.7-0.1,0.7,0.5,0.7,1
					C42,205.7,42,206.3,42,206.9z M27.3,206.6c0-0.5,0-1,0-1.5c0-0.5-0.1-0.7-0.6-0.7c-0.5,0-0.8,0.1-0.8,0.7c0,1.1,0,2.1,0,3.2
					c0,0.6,0.3,0.7,0.8,0.7c0.5,0,0.7-0.2,0.6-0.7C27.3,207.7,27.3,207.2,27.3,206.6z M36.9,206.7c0-0.5,0-1,0-1.5
					c0-0.5-0.2-0.8-0.7-0.8c-0.6,0-0.8,0.2-0.7,0.8c0,1,0,2.1,0,3.1c0,0.6,0.2,0.8,0.7,0.8c0.5,0,0.8-0.2,0.7-0.8
					C36.8,207.7,36.9,207.2,36.9,206.7z" />
            <path fill="#EE4124" d="M42.6,51.2c0-0.5,0-1,0-1.6c0-0.7,0-1.3,1-1.1c0.6,0.1,0.7-0.2,0.7-0.8c0-0.4,0-0.8,0-1.2
					c0-1.8,0-1.8,1.7-1.9c0.6,0,0.7-0.3,0.7-0.8c0-0.5,0.1-1,0-1.6c-0.2-1.3,0.3-1.6,1.6-1.6c0.9,0.1,1.3,0.2,1.2,1.2
					c0,0.3,0,0.7,0,1c-0.2,1.3,0.2,2,1.6,1.7c0.6-0.1,0.9,0.2,0.8,0.8c0,0.6,0,1.2,0,1.8c-0.1,0.8,0,1.5,1.1,1.3
					c0.6-0.1,0.6,0.3,0.6,0.7c0,1.3,0,2.7,0,4c0,0.5-0.2,0.8-0.7,0.7c-0.9-0.1-1.1,0.3-1,1c0,0.3,0,0.5,0,0.8c0,1.8,0,1.8-1.8,2.1
					c-0.5,0.1-0.7,0.2-0.7,0.7c0,0.6-0.1,1.1,0,1.7c0.2,1.3-0.3,1.6-1.6,1.5c-0.9-0.1-1.3-0.2-1.1-1.1c0-0.3,0-0.6,0-0.9
					c0.2-1.3,0-2.2-1.7-1.9c-0.6,0.1-0.7-0.2-0.7-0.8c0-0.6,0-1.2,0-1.8c0-0.8,0-1.5-1.1-1.3c-0.6,0.1-0.6-0.3-0.6-0.7
					C42.6,52.6,42.6,51.9,42.6,51.2z M47.4,51.5c0,0.5,0,1,0,1.6c0,0.4,0,0.8,0.6,0.7c0.5,0,0.7-0.3,0.7-0.7c0-1,0-2,0-3
					c0-0.5-0.3-0.8-0.8-0.8c-0.6,0-0.6,0.4-0.6,0.8C47.4,50.5,47.4,51,47.4,51.5z" />
            <path fill="#EE4124"
              d="M53.5,206.9c0,0.6,0,1.1,0,1.7c0.1,0.7-0.1,1.2-1,1c-0.6-0.1-0.8,0.2-0.7,0.7c0,0.3,0,0.7,0,1
					c0,1.8,0,1.8-1.8,2.1c-0.5,0.1-0.7,0.3-0.6,0.7c0,0.6,0,1.1,0,1.7c0,1.3-1.1,2-2.3,1.5c-0.3-0.1-0.3-0.4-0.3-0.6
					c0-0.4,0-0.8,0-1.2c0-1.8,0-1.9-1.7-2.1c-0.5-0.1-0.7-0.3-0.7-0.7c0-0.6,0-1.1,0-1.7c0.1-0.9,0.1-1.7-1.2-1.5
					c-0.5,0.1-0.5-0.3-0.5-0.7c0-1.4,0-2.8,0-4.1c0-0.5,0.1-0.8,0.6-0.7c1,0.1,1.2-0.4,1.1-1.2c0-0.3,0-0.5,0-0.8
					c-0.2-1.2,0.2-1.8,1.5-1.6c0.8,0.1,1-0.3,0.9-1c0-0.5,0.1-1,0-1.6c-0.2-1.1,0.2-1.4,1.3-1.4c1.2,0,1.6,0.3,1.4,1.4
					c-0.1,0.4,0,0.8,0,1.2c-0.1,1,0.2,1.5,1.3,1.3c1-0.2,1.3,0.3,1.2,1.2c-0.1,0.5,0,1,0,1.6c0,0.4,0.1,0.8,0.6,0.7
					c1.2-0.2,1.1,0.6,1.1,1.3C53.5,205.9,53.5,206.4,53.5,206.9z M47.4,206.6c0,0.6,0,1.1,0,1.7c0,0.4,0,0.7,0.5,0.7
					c0.4,0,0.7-0.2,0.8-0.5c0-1.2,0-2.3,0-3.5c0-0.4-0.4-0.5-0.7-0.6c-0.5,0-0.6,0.3-0.6,0.6C47.4,205.6,47.4,206.1,47.4,206.6z" />
            <path fill="#EE4124" d="M9.2,51.2c0-0.5,0-1,0-1.6c-0.1-0.7,0.1-1.2,1-1c0.7,0.1,0.8-0.2,0.8-0.8c0-0.3,0-0.7,0-1
					c0-1.8,0-1.8,1.8-2c0.4,0,0.6-0.2,0.6-0.6c0-0.6,0.1-1.3,0-1.9c-0.1-1.1,0.3-1.4,1.4-1.3c0.8,0,1.2,0.2,1.1,1.1
					c-0.1,0.4,0,0.8,0,1.2c-0.1,1.1,0,1.9,1.4,1.6c0.5-0.1,0.7,0.2,0.7,0.7c0,0.6,0,1.1,0,1.7c-0.1,1.1,0.1,1.8,1.4,1.5
					c0.6-0.1,0.7,0.3,0.7,0.8c0,1,0,2,0,3c0.1,1.1,0.1,2-1.5,1.7c-0.5-0.1-0.6,0.2-0.6,0.6c0,0.6,0,1.1,0,1.7c0.1,1,0,1.8-1.4,1.6
					c-0.5-0.1-0.7,0.2-0.7,0.7c0,0.6-0.1,1.2,0,1.8c0.1,1.1-0.2,1.5-1.4,1.4c-0.8-0.1-1.2-0.2-1.1-1.1c0.1-0.4,0-0.9,0-1.3
					c0.2-1.2-0.2-1.8-1.5-1.6c-0.6,0.1-1-0.1-0.9-0.8c0.1-0.6,0-1.2,0-1.8c0.1-0.8,0-1.4-1.1-1.2c-0.6,0.1-0.7-0.3-0.7-0.8
					C9.2,52.6,9.2,51.9,9.2,51.2z M15.1,51.5c0-0.6,0-1.1,0-1.7c0-0.5-0.3-0.6-0.7-0.6c-0.5,0-0.7,0.1-0.7,0.7c0,1.1,0,2.2,0,3.2
					c0,0.6,0.3,0.7,0.8,0.7c0.5,0,0.7-0.2,0.6-0.7C15.1,52.6,15.1,52,15.1,51.5z" />
            <path fill="#EE4124"
              d="M9.2,206.8c0-0.6,0-1.1,0-1.7c-0.1-0.7,0.1-1.2,1-1.1c0.7,0.1,0.8-0.3,0.8-0.9c0-0.3,0-0.6,0-0.9
					c-0.2-1.3,0.1-2.1,1.7-1.8c0.6,0.1,0.8-0.2,0.7-0.7c0-0.5,0-1,0-1.6c0-1.6,0.2-1.8,1.9-1.6c0.4,0.1,0.6,0.2,0.6,0.6
					c0,0.6,0,1.1,0,1.7c-0.1,1,0,1.8,1.4,1.6c0.5-0.1,0.7,0.2,0.7,0.7c0,0.5,0,1,0,1.6c-0.1,0.9,0.1,1.5,1.2,1.3
					c0.7-0.1,0.9,0.3,0.9,0.9c0,1.3,0,2.5,0,3.8c0,0.7-0.2,1-0.9,0.9c-1.1-0.2-1.3,0.4-1.2,1.3c0,0.3,0,0.6,0,0.9
					c0.1,1.1,0,1.9-1.4,1.7c-0.5-0.1-0.7,0.3-0.6,0.7c0,0.6,0,1.1,0,1.7c0,1.4-0.8,1.9-2.1,1.5c-0.3-0.1-0.3-0.3-0.3-0.6
					c0-0.5,0-1,0-1.4c0.1-1.3,0-2.2-1.7-1.9c-0.6,0.1-0.7-0.3-0.7-0.8c0-0.6,0-1.1,0-1.7c0-0.8,0.1-1.6-1.1-1.4
					c-0.4,0.1-0.6-0.2-0.6-0.6C9.2,208.3,9.2,207.6,9.2,206.8z M15.1,206.7c0-0.5,0-1,0-1.5c0-0.5-0.1-0.8-0.7-0.7
					c-0.6,0-0.8,0.2-0.7,0.8c0,1,0,2.1,0,3.1c0,0.5,0.2,0.8,0.7,0.8c0.6,0,0.7-0.3,0.7-0.8C15.1,207.7,15.1,207.2,15.1,206.7z" />
            <path fill="#EE4124" d="M32.5,7.3c0,1.3,0,2.6,0,3.9c0,0.9-0.4,0.9-1,0.8c-0.6,0-1.1,0.1-1.1-0.8c0-2.6,0-5.2,0-7.9
					c0-0.9,0.6-0.7,1.1-0.8c0.6,0,1.1,0,1,0.9C32.4,4.7,32.5,6,32.5,7.3z" />
            <path fill="#EE4124" d="M32.5,250.2c0,1.3-0.1,2.7,0,4c0,0.9-0.5,0.8-1.1,0.8c-0.5,0-1.1,0.2-1.1-0.8c0-2.7,0-5.4,0-8.1
					c0-0.9,0.5-0.8,1.1-0.8c0.6,0,1.1-0.1,1.1,0.8C32.4,247.5,32.5,248.9,32.5,250.2z" />
            <path fill="#EE4124" d="M32.5,221.1c0,0.9,0,1.9,0,2.8c0.1,0.8-0.1,1.2-1.1,1.2c-1,0-1.1-0.4-1.1-1.2c0-2,0.1-4,0-6.1
					c0-1,0.5-0.8,1.2-0.9c0.7,0,1,0.1,1,0.9C32.4,218.9,32.5,220,32.5,221.1z" />
            <path fill="#EE4124" d="M32.5,192.2c0,1.1,0,2.1,0,3.2c0,0.8-0.5,0.8-1,0.7c-0.5,0-1.1,0.2-1.1-0.7c0-2.2,0-4.5,0-6.7
					c0-0.9,0.6-0.7,1.1-0.7c0.5,0,1.1-0.2,1.1,0.7C32.5,189.8,32.5,191,32.5,192.2z" />
            <path fill="#EE4124" d="M32.5,36.5c0,1-0.1,2.1,0,3.1c0.1,0.8-0.3,1-1,1c-0.6,0-1.2,0-1.1-0.9c0.1-2.1,0.1-4.2,0-6.4
					c0-1,0.6-0.8,1.2-0.8c0.7-0.1,1,0.1,1,0.9C32.4,34.4,32.5,35.5,32.5,36.5z" />
            <path fill="#EE4124" d="M32.5,65.7c0,0.9,0,1.8,0,2.7c0.1,0.8-0.1,1.2-1.1,1.2c-1,0-1.1-0.4-1.1-1.2c0-2,0.1-4,0-6
					c0-0.9,0.4-0.9,1.1-1c0.7,0,1.1,0.1,1.1,1C32.4,63.5,32.5,64.6,32.5,65.7z" />
            <path fill="#EF5035" d="M54.3,6.6c0,0.5-0.1,1,0,1.6c0.2,1.2-0.5,1.3-1.4,1.3c-0.6,0-0.8-0.2-0.8-0.8c0-1.4,0-2.8,0-4.1
					c0-0.9,0.6-0.7,1.1-0.7c0.5,0,1.1-0.2,1.1,0.7C54.3,5.2,54.3,5.9,54.3,6.6z" />
            <path fill="#EF5035" d="M54.3,98.8c0,0.4-0.1,0.9,0,1.3c0.2,1.2-0.4,1.5-1.4,1.4c-0.7,0-0.8-0.3-0.8-0.9c0-1.3,0.1-2.6,0-3.9
					c0-1,0.6-0.9,1.2-0.9c0.6,0,1.1,0,1,0.9C54.2,97.5,54.3,98.2,54.3,98.8z" />
            <path fill="#EF5035" d="M54.3,192.5c0,0.4-0.1,0.9,0,1.3c0.3,1.4-0.5,1.4-1.6,1.4c-0.5,0-0.7-0.3-0.6-0.7c0-1.3,0-2.7,0-4
					c0-0.9,0.5-0.8,1.1-0.8c0.6,0,1.2-0.1,1.1,0.8C54.2,191.1,54.3,191.8,54.3,192.5z" />
            <path fill="#EF5035" d="M54.3,65.9c0,0.5,0,1,0,1.4c0.1,0.8,0,1.3-1.1,1.3c-1.1,0-1.1-0.6-1.1-1.4c0-1,0-2,0-3c0-0.8,0-1.3,1.1-1.3
					c1.1,0,1.3,0.4,1.2,1.3C54.2,64.8,54.3,65.4,54.3,65.9z" />
            <path fill="#EF5035" d="M52.1,223.2c0-0.5,0-0.9,0-1.4c-0.1-0.9,0.1-1.3,1.1-1.3c1,0,1.1,0.4,1.1,1.2c0,1.2-0.1,2.3,0,3.5
					c0,0.8-0.4,0.9-1,0.9c-0.6,0-1.3,0.2-1.2-0.8C52.1,224.5,52.1,223.9,52.1,223.2z" />
            <path fill="#EF5035" d="M54.3,35c0,0.5,0,1,0,1.4c0.1,0.8,0,1.3-1.1,1.3c-1.1,0-1.1-0.6-1.1-1.4c0-1,0-2.1,0-3.1
					c0-0.8,0.2-1.1,1.1-1.1c0.9,0,1.3,0.2,1.2,1.2C54.2,33.9,54.3,34.4,54.3,35z" />
            <path fill="#EF5035" d="M52.1,159.3c0-0.5,0-0.9,0-1.4c0-1,0.9-1.6,1.9-1.1c0.4,0.2,0.3,0.5,0.3,0.8c0,1.3,0,2.6,0,3.9
					c0,0.9-0.4,0.9-1.1,0.9c-0.6,0-1.2,0.1-1.2-0.9C52.1,160.7,52.1,160,52.1,159.3z" />
            <path fill="#EF5035" d="M54.3,251.7c0,0.5,0,1,0,1.4c0.1,0.9-0.1,1.3-1.2,1.3c-1,0-1.1-0.5-1.1-1.3c0-0.9,0-1.9,0-2.9
					c0-0.8,0.1-1.3,1.1-1.2c1,0,1.2,0.4,1.1,1.2C54.2,250.8,54.3,251.2,54.3,251.7z" />
            <path fill="#EF5035" d="M8.8,6.5c0-0.6,0-1.1,0-1.7c0-0.6,0-1.1,0.8-1.1c0.9,0,1,0.4,1,1.1c0,1.2,0,2.5,0,3.7c0,0.8-0.5,0.7-1,0.8
					C9,9.4,8.8,9.2,8.8,8.6C8.9,7.9,8.8,7.2,8.8,6.5z" />
            <path fill="#EE4124" d="M10.6,98.8c0,0.5,0,1,0,1.6c0,0.6,0.1,1.2-0.9,1.2c-0.9,0-0.9-0.4-0.9-1.1c0-1.2,0-2.3,0-3.5
					c0-0.6,0-1.1,0.8-1.1c0.9,0,1,0.4,0.9,1.1C10.6,97.6,10.6,98.2,10.6,98.8z" />
            <path fill="#EE4124" d="M10.6,159.6c0,0.5,0,1,0,1.5c0.1,0.8-0.2,1-1,1.1c-0.9,0-0.8-0.5-0.8-1.1c0-1.2,0-2.4,0-3.6
					c0-0.7,0.3-0.8,0.9-0.8c0.6,0,1,0.2,0.9,0.9C10.6,158.3,10.6,159,10.6,159.6z" />
            <path fill="#EE4124" d="M8.9,192.3c0-0.6,0-1.1,0-1.7c0-0.6-0.1-1.1,0.8-1.1c0.9,0,1,0.4,1,1.1c0,1.2,0,2.3,0,3.5
					c0,0.7-0.2,1-0.9,1c-0.8,0-0.9-0.4-0.9-1C8.9,193.5,8.9,192.9,8.9,192.3z" />
            <path fill="#EE4124" d="M8.9,65.8c0-0.6,0-1.1,0-1.7c0-0.6,0-1,0.8-1c0.9,0,1,0.4,1,1.1c0,1.2,0,2.3,0,3.5c0,0.7-0.2,1-0.9,1
					c-0.8,0-0.9-0.4-0.9-1C8.9,67,8.9,66.4,8.9,65.8z" />
            <path fill="#EE4124" d="M8.9,223.3c0-0.6,0-1.2,0-1.8c0-0.6,0-1,0.8-1c0.7,0,1.1,0.1,1,0.9c-0.1,1.3-0.1,2.5,0,3.8
					c0,0.8-0.4,0.9-1,0.9c-0.8,0-0.8-0.4-0.8-1C8.9,224.5,8.9,223.9,8.9,223.3z" />
            <path fill="#EE4124" d="M8.9,34.9c0-0.6,0-1.1,0-1.7c0-0.6-0.1-1.1,0.8-1.1c0.9,0,1,0.3,1,1.1c0,1.2,0,2.3,0,3.5c0,0.7-0.2,1-0.9,1
					c-0.8,0-0.9-0.3-0.9-1C8.9,36.1,8.9,35.5,8.9,34.9z" />
            <path fill="#EF5035" d="M10.6,251.7c0,0.6,0,1.1,0,1.7c0.1,0.8-0.2,1-1,1c-0.9,0-0.8-0.5-0.8-1.1c0-1.1,0-2.2,0-3.3
					c0-0.6,0.1-0.9,0.9-0.9c0.7,0,1,0.2,1,1C10.6,250.6,10.6,251.2,10.6,251.7z" />
            <path fill="#FEF8F7" d="M19.5,129.1c0-1.9,0-3.9,0-5.8c0-0.9,0.2-1.3,1.2-1.3c1.8,0.1,1.9,0,1.8-1.8c0-0.9,0-1.6,1.2-1.4
					c0.9,0.2,0.8-0.5,0.8-1.1c0.1-0.8-0.5-1.9,1.1-2c0.5,0,0.3-0.7,0.3-1.1c0.1-0.7-0.4-1.9,1.1-1.8c0.3,0,0.3-0.4,0.3-0.6
					c0-0.6,0-1.3,0-1.9c-0.1-0.8,0.1-1.3,1.1-1.2c0.5,0.1,0.7-0.3,0.6-0.7c-0.4-2.2,1.1-4.1,0.7-6.3c-0.1-0.4,0.1-0.6,0.6-0.6
					c2.4-0.3,2.6-0.2,2.6,2.2c0,0.7-0.3,1.5,0.8,1.8c0.5,0.1,0.1,1.1,0.2,1.7c0.1,0.9-0.5,2.2,1.3,2.1c0.4,0,0.3,0.4,0.3,0.7
					c0,0.7,0,1.5,0,2.2c0,0.3-0.1,0.8,0.4,0.8c1.1-0.1,0.9,0.7,1,1.4c0,0.7-0.4,1.7,1,1.7c0.6,0,0.3,0.8,0.3,1.2
					c-0.1,1.1,0,1.9,1.4,1.6c0.5-0.1,0.7,0.2,0.7,0.7c0,0.1,0,0.3,0,0.4c0,2.1,0,2.1,2,2.1c0.8,0,1.1,0.2,1,1c0,4.1,0,8.1,0,12.2
					c0,0.8-0.2,1.1-1,1c-0.3,0-0.5,0-0.8,0c-1-0.1-1.5,0.2-1.3,1.2c0.1,0.3,0,0.7,0,1c0.1,0.7-0.2,1.1-0.9,0.9
					c-1-0.2-1.2,0.3-1.2,1.2c0,0.7,0.5,1.7-1,1.7c-0.6,0-0.3,0.9-0.3,1.3c-0.1,0.7,0.3,1.6-1,1.6c-0.4,0-0.4,0.4-0.4,0.7
					c0,0.6,0,1.3,0,1.9c0,0.7,0,1.3-1,1.2c-0.5-0.1-0.7,0.2-0.7,0.7c0,0.7,0,1.5,0,2.2c0,0.4,0.1,0.9-0.6,0.9
					c-0.4,0-0.4,0.3-0.4,0.7c0,0.5,0,1,0,1.4c0,1.8,0,1.7-1.8,1.8c-1.1,0.1-1.6-0.2-1.4-1.4c0.3-2-1.1-3.8-0.7-5.8
					c0.1-0.5-0.3-0.6-0.7-0.5c-0.9,0.1-1.1-0.4-1-1.2c0-0.6,0-1.3,0-1.9c0-0.3,0.1-0.8-0.3-0.7c-1.4,0-1.1-0.9-1.1-1.7
					c0-0.7,0.2-1.4-1-1.4c-0.7,0-0.4-0.7-0.4-1.1c0-1,0.1-1.9-1.4-1.7c-0.4,0.1-0.6-0.2-0.6-0.6c0-0.2,0-0.3,0-0.5c0-2,0-2-2-2
					c-0.8,0-1-0.3-1-1.1C19.5,133.1,19.5,131.1,19.5,129.1z M36.5,121c0-1.1,0-2.2,0-3.2c0-0.7-0.2-0.9-0.9-0.9
					c-1.8-0.1-1.8-0.1-1.8,1.8c0,0.3,0,0.7,0,1c0,0.3-0.1,0.5-0.4,0.5c-0.9-0.1-0.9,0.5-0.9,1.1c0,0.6,0,1.1,0,1.7
					c0.1,0.8-0.2,1.1-1,1c-0.7,0-1.1-0.1-1.1-1c0.1-0.7,0-1.4,0-2.1c0-0.5-0.1-0.9-0.7-0.8c-1,0.2-1.1-0.4-1-1.2c0-0.4,0-0.9,0-1.3
					c0.1-0.9-0.5-0.9-1.1-0.8c-0.6,0-1.1-0.1-1.1,0.8c0,2.2,0,4.3,0,6.5c0,0.5,0.1,0.9,0.7,0.8c1.1-0.1,1.1,0.5,1,1.3
					c0,0.6-0.3,1.3,0.8,1.4c0.4,0.1,0.4,3.2,0,3.3c-1,0.1-0.8,0.8-0.8,1.4c0.1,0.8-0.1,1.4-1.1,1.2c-0.5-0.1-0.7,0.2-0.7,0.7
					c0,2.2,0,4.3,0,6.5c0,0.4,0.1,0.6,0.6,0.7c1.3,0.2,1.5,0,1.6-1.4c0-0.5-0.5-1.5,0.6-1.5c1.1,0,1.1-0.5,1.1-1.3
					c0-0.6,0-1.2,0-1.8c-0.1-0.8,0.1-1.2,1-1.2c0.9,0,1.1,0.4,1,1.2c0,0.4,0,0.9,0,1.3c0.1,0.8-0.5,1.9,1.1,1.9
					c0.3,0,0.2,0.4,0.2,0.7c0,0.4,0.1,0.9,0,1.3c-0.2,1.1,0.6,0.9,1.2,0.9c0.6,0,1.6,0.4,1.5-0.9c-0.1-1.9-0.1-3.9,0-5.8
					c0-0.8-0.2-1.2-1.1-1.1c-0.4,0-1.2,0.3-1.2-0.4c0-1-0.4-1.9-0.7-2.8c-0.6-1.7,0.9-3.3,0.7-5c0-0.3,0.3-0.4,0.6-0.3
					c1.9,0.4,1.8-0.8,1.7-2.1C36.5,122.3,36.5,121.6,36.5,121z M22.8,129.1c0,0.7,0,1.4,0,2.1c-0.1,0.8,0.2,1,1,0.9
					c0.6,0,1.2,0,1.2-0.9c-0.1-1.2,0-2.5,0-3.8c0-0.8,0-1.3-1-1.3c-1,0-1.1,0.5-1.1,1.3C22.9,127.9,22.8,128.5,22.8,129.1z
					 M40.3,129.2c0-0.8,0-1.5,0-2.3c0-0.9-0.6-0.7-1.1-0.7c-0.5,0-1.1-0.2-1.1,0.7c0,1.5,0,3,0,4.5c0,0.5,0.2,0.7,0.7,0.7
					c1,0.1,1.7-0.1,1.5-1.3C40.2,130.2,40.3,129.7,40.3,129.2z M32.5,146.3c0-0.6-0.1-1.3,0-1.9c0.1-0.9-0.5-0.8-1.1-0.8
					c-0.6,0-1.1-0.1-1.1,0.8c0.1,1.2,0.1,2.3,0,3.5c0,0.8,0,1.3,1.1,1.3c1.1,0,1-0.6,1-1.3C32.5,147.3,32.5,146.8,32.5,146.3z
					 M32.5,112.3c0-0.7,0-1.4,0-2.1c0.1-0.9-0.5-0.7-1-0.7c-0.4,0-1.1-0.3-1.1,0.6c0,1.4,0,2.8,0,4.3c0,0.5,0.2,0.6,0.6,0.6
					c0.9,0,1.8,0.1,1.5-1.3C32.4,113.2,32.5,112.7,32.5,112.3z" />
            <path fill="#FEF8F7" d="M45.7,21.9c0,0.6,0,1.3,0,1.9c0,0.2,0.1,0.6-0.3,0.6c-1.4-0.1-1,0.9-1.1,1.6c0,0.4,0,0.8,0,1.2
					c0,0.5-0.1,0.9-0.7,0.8c-1-0.2-1.1,0.4-1,1.1c0,0.6,0,1.1,0,1.7c0,0.7,0,1.1-0.9,1.1c-0.9,0-0.9-0.5-0.9-1.2c0-0.5,0-1,0-1.6
					c0.1-0.8,0-1.4-1-1.2c-0.4,0.1-0.6-0.2-0.6-0.6c0-0.6,0-1.1,0-1.7c0-0.6,0.2-1.4-0.9-1.3c-0.5,0-0.5-0.4-0.5-0.7
					c0-1.3,0-2.5,0-3.8c0-0.3-0.1-0.7,0.3-0.7c1.3,0.1,1-0.8,1-1.5c0-0.7,0-1.4,0-2.1c0-0.8,0-1.4,1-1.3c0.5,0.1,0.6-0.3,0.6-0.7
					c0-0.5,0-1,0-1.6c-0.1-0.7,0.2-1,0.9-1c0.8,0,1,0.3,0.9,1c0,0.4,0,0.9,0,1.3c-0.1,0.7,0.1,1.1,0.9,1c0.7-0.1,0.9,0.3,0.8,0.9
					c0,0.8,0,1.6,0,2.5c0,0.7-0.3,1.6,1,1.4c0.5,0,0.4,0.4,0.4,0.7C45.7,20.6,45.7,21.3,45.7,21.9z M40.8,21.6c0,0.6,0,1.2,0,1.8
					c-0.1,0.8,0.4,0.8,1,0.8c0.6,0,0.9-0.1,0.9-0.8c0-1.1,0-2.2,0-3.4c0-0.6,0.1-1.2-0.9-1.1c-0.9,0-1,0.4-0.9,1.1
					C40.9,20.6,40.8,21.1,40.8,21.6z" />
            <path fill="#FEF8F7" d="M16.4,21.8c0-0.5,0-1,0-1.6c-0.1-0.7,0.1-1.1,0.9-1c0.8,0.1,0.8-0.3,0.8-0.9c0-0.7,0-1.5,0-2.2
					c0-0.9-0.3-1.9,1.3-1.7c0.4,0.1,0.5-0.3,0.5-0.6c0-0.6,0-1.1,0-1.7c0-0.6,0.1-0.9,0.8-0.9c0.7,0,1,0.2,0.9,1c0,0.4,0,0.9,0,1.3
					c-0.1,0.7,0.1,1.1,0.9,1c0.7-0.1,0.8,0.3,0.8,0.9c0,0.7,0,1.5,0,2.2c0,0.9-0.4,2,1.3,1.8c0.5-0.1,0.4,0.4,0.4,0.8c0,1,0,2,0,3
					c0,0.8,0.2,1.7-1.2,1.5c-0.5-0.1-0.6,0.3-0.6,0.7c0,0.6,0,1.2,0,1.8c0.1,0.7-0.1,1.2-1,1.1c-0.6-0.1-0.7,0.3-0.7,0.8
					c0,0.7,0,1.5,0,2.2c0,0.7-0.2,0.9-0.9,0.9c-0.7,0-0.9-0.2-0.9-0.9c0-0.5,0-1,0-1.6c0-0.8,0.1-1.7-1.2-1.5
					c-0.5,0.1-0.6-0.3-0.6-0.7c0-0.7,0-1.4,0-2.1c0-0.5-0.1-0.9-0.7-0.8c-0.9,0.1-1-0.3-1-1C16.4,22.9,16.4,22.3,16.4,21.8z
					 M21.8,21.6c0-0.6,0-1.3,0-1.9c0-0.2,0-0.5-0.3-0.6c-1.1-0.5-2.1,0.1-2.1,1.3c0,1,0,2,0,3c0,0.8,0.2,0.9,1,0.9
					c1,0,1.7-0.1,1.4-1.4C21.8,22.4,21.8,22,21.8,21.6z" />
            <path fill="#FEF8F7" d="M16.4,236c0-0.5,0-1,0-1.4c0-0.7,0-1.3,1-1.2c0.6,0.1,0.7-0.3,0.7-0.8c0-0.4,0-0.9,0-1.3
					c-0.1-0.7,0.1-1.3,1-1.1c0.6,0.1,0.8-0.2,0.7-0.7c0-0.7,0-1.5,0-2.2c0-0.6,0.1-0.9,0.9-0.9c0.7,0,0.9,0.2,0.9,0.9
					c0,0.6,0,1.1,0,1.7c0,0.8-0.1,1.5,1.1,1.3c0.5-0.1,0.6,0.2,0.6,0.6c0,0.5,0,1,0,1.4c0,0.7,0,1.3,1,1.2c0.6-0.1,0.8,0.2,0.7,0.8
					c0,1.2,0,2.4,0,3.6c0,0.7-0.2,1-0.9,0.9c-0.7-0.1-0.9,0.3-0.9,0.9c0,1.1,0,2.2,0,3.4c0,0.5,0,0.9-0.7,0.8c-1-0.1-1,0.5-1,1.2
					c0,0.4,0,0.9,0,1.3c0.1,0.7-0.2,0.8-0.8,0.8c-0.6,0-1-0.1-0.9-0.8c0-0.5,0-1,0-1.4c0.1-0.7-0.1-1.1-0.9-1
					c-0.7,0.1-0.9-0.3-0.8-0.9c0-1.1,0-2.2,0-3.4c0-0.4,0-0.9-0.6-0.8c-1.1,0.2-1.2-0.5-1.1-1.3C16.4,236.9,16.4,236.4,16.4,236z
					 M19.5,236.5c0,0.6,0,1.1,0,1.7c0,0.4-0.2,0.8,0.3,1c1.1,0.5,2.1-0.1,2.1-1.3c0-0.9-0.1-1.8,0-2.7c0.1-1-0.2-1.2-1.2-1.2
					c-1,0-1.3,0.3-1.2,1.2C19.5,235.6,19.5,236.1,19.5,236.5z" />
            <path fill="#FEF8F7" d="M45.7,235.9c0,0.8,0,1.5,0,2.1c0,0.3,0,0.7-0.4,0.6c-1.1-0.1-0.9,0.6-0.9,1.2c0,1,0,2.1,0,3.1
					c0,0.5-0.2,0.9-0.7,0.8c-1-0.1-1.1,0.4-1,1.2c0,0.3,0,0.6,0,0.9c0,0.7,0.1,1.2-0.9,1.2c-1.1,0-0.9-0.7-0.9-1.3
					c0-0.3,0-0.5,0-0.8c0.1-0.8,0-1.4-1.1-1.2c-0.6,0.1-0.6-0.4-0.6-0.8c0-1.2,0-2.3,0-3.5c0-0.4,0.1-0.9-0.5-0.8
					c-0.9,0.1-0.9-0.4-0.9-1.1c0-0.9,0-1.8,0-2.7c0-0.7-0.3-1.6,1-1.6c0.5,0,0.3-0.5,0.4-0.8c0-0.5,0-1,0-1.4c0-0.6,0.1-1,0.8-0.9
					c0.7,0.1,0.9-0.3,0.8-0.9c0-0.6,0-1.3,0-1.9c0-0.7,0.1-1,0.9-1c0.9,0,1,0.4,1,1.1c0,0.6,0,1.2,0,1.8c-0.1,0.7,0.1,1.1,0.9,1
					c0.7-0.1,0.9,0.3,0.8,0.9c0,0.5,0,1,0,1.6c0,0.2,0,0.6,0.1,0.6C46.6,233.4,45.4,235.1,45.7,235.9z M42.7,236.7
					c0-0.6,0-1.2,0-1.8c0.1-0.8-0.3-0.8-0.9-0.8c-0.6,0-0.9,0.2-0.9,0.9c0.1,1.1,0.1,2.2,0,3.4c0,0.8,0.2,1,1,1
					c0.9,0,0.8-0.5,0.8-1.1C42.6,237.7,42.7,237.2,42.7,236.7z" />
            <path fill="#FEF8F7" d="M36.9,51.6c0,0.5,0,1,0,1.4c0,0.5-0.1,0.8-0.7,0.8c-0.5,0-0.8-0.1-0.8-0.7c0-1,0-2.1,0-3.1
					c0-0.6,0.3-0.7,0.8-0.7c0.6,0,0.7,0.3,0.7,0.8C36.8,50.5,36.9,51.1,36.9,51.6z" />
            <path fill="#FEF8F7" d="M27.3,51.6c0,0.5,0,1,0,1.5c0,0.5-0.2,0.6-0.7,0.6c-0.4,0-0.8,0-0.8-0.6c0-1.1,0-2.2,0-3.2
					c0-0.6,0.3-0.7,0.8-0.7c0.5,0,0.7,0.2,0.7,0.7C27.3,50.5,27.3,51,27.3,51.6z" />
            <path fill="#FEF8F7" d="M27.3,206.6c0,0.6,0,1.1,0,1.7c0,0.5-0.1,0.7-0.6,0.7c-0.5,0-0.8-0.1-0.8-0.7c0-1.1,0-2.1,0-3.2
					c0-0.6,0.3-0.7,0.8-0.7c0.5,0,0.7,0.2,0.6,0.7C27.3,205.6,27.3,206.1,27.3,206.6z" />
            <path fill="#FEF8F7" d="M36.9,206.7c0,0.5,0,1,0,1.5c0,0.6-0.2,0.8-0.7,0.8c-0.6,0-0.8-0.2-0.7-0.8c0-1,0-2.1,0-3.1
					c0-0.6,0.2-0.8,0.7-0.8c0.6,0,0.8,0.2,0.7,0.8C36.8,205.7,36.9,206.2,36.9,206.7z" />
            <path fill="#FEF8F7" d="M47.4,51.5c0-0.5,0-0.9,0-1.4c0-0.4,0-0.8,0.6-0.8c0.5,0,0.8,0.3,0.8,0.8c0,1,0,2,0,3
					c0,0.5-0.3,0.7-0.7,0.7c-0.6,0-0.6-0.3-0.6-0.7C47.4,52.5,47.4,52,47.4,51.5z" />
            <path fill="#FEF8F7" d="M47.4,206.6c0-0.5,0-1,0-1.5c0-0.4,0.1-0.7,0.6-0.6c0.4,0,0.7,0.2,0.7,0.6c0,1.2,0,2.3,0,3.5
					c0,0.4-0.4,0.5-0.8,0.5c-0.5,0-0.5-0.3-0.5-0.7C47.4,207.7,47.4,207.2,47.4,206.6z" />
            <path fill="#FEF8F7" d="M15.1,51.5c0,0.5,0,1,0,1.5c0,0.5-0.1,0.7-0.6,0.7c-0.5,0-0.8,0-0.8-0.7c0-1.1,0-2.2,0-3.2
					c0-0.5,0.3-0.7,0.7-0.7c0.5,0,0.7,0.1,0.7,0.6C15.1,50.4,15.1,51,15.1,51.5z" />
            <path fill="#FEF8F7" d="M15.1,206.7c0,0.5,0,1,0,1.5c0,0.5-0.1,0.8-0.7,0.8c-0.6,0-0.8-0.2-0.7-0.8c0-1,0-2.1,0-3.1
					c0-0.6,0.2-0.7,0.7-0.8c0.6,0,0.8,0.2,0.7,0.7C15.1,205.7,15.1,206.2,15.1,206.7z" />
            <path fill="#EE4124"
              d="M36.5,121c0,0.6,0,1.3,0,1.9c0.1,1.2,0.2,2.4-1.7,2.1c-0.2,0-0.6,0-0.6,0.3c0.2,1.7-1.3,3.3-0.7,5
					c0.3,0.9,0.7,1.8,0.7,2.8c0,0.7,0.8,0.4,1.2,0.4c0.9-0.1,1.1,0.3,1.1,1.1c-0.1,1.9-0.1,3.9,0,5.8c0,1.3-0.9,0.9-1.5,0.9
					c-0.6,0-1.4,0.2-1.2-0.9c0.1-0.4,0-0.9,0-1.3c0-0.2,0.1-0.7-0.2-0.7c-1.6,0-1-1.1-1.1-1.9c0-0.4,0-0.9,0-1.3
					c0.1-0.8-0.1-1.1-1-1.2c-0.9,0-1.1,0.4-1,1.2c0,0.6,0,1.2,0,1.8c0,0.8,0,1.4-1.1,1.3c-1.1,0-0.5,1-0.6,1.5
					c-0.1,1.4-0.3,1.6-1.6,1.4c-0.4-0.1-0.6-0.3-0.6-0.7c0-2.2,0-4.3,0-6.5c0-0.5,0.2-0.8,0.7-0.7c1,0.1,1.1-0.4,1.1-1.2
					c0-0.6-0.2-1.3,0.8-1.4c0.4,0,0.3-3.2,0-3.3c-1-0.1-0.8-0.8-0.8-1.4c0-0.8,0-1.4-1-1.3c-0.6,0.1-0.7-0.3-0.7-0.8
					c0-2.2,0-4.3,0-6.5c0-0.9,0.5-0.8,1.1-0.8c0.6,0,1.2,0,1.1,0.8c0,0.4,0,0.9,0,1.3c0,0.7,0,1.3,1,1.2c0.6-0.1,0.7,0.3,0.7,0.8
					c0,0.7,0.1,1.4,0,2.1c-0.1,0.9,0.3,1,1.1,1c0.8,0,1.1-0.3,1-1c-0.1-0.6,0-1.1,0-1.7c0-0.6-0.1-1.2,0.9-1.1
					c0.3,0,0.4-0.2,0.4-0.5c0-0.3,0-0.7,0-1c0-1.8,0-1.8,1.8-1.8c0.7,0,0.9,0.2,0.9,0.9C36.5,118.8,36.5,119.9,36.5,121z" />
            <path fill="#EF5035" d="M22.8,129.1c0-0.6,0-1.1,0-1.7c-0.1-0.8,0.1-1.2,1.1-1.3c1.1,0,1.1,0.5,1,1.3c0,1.3-0.1,2.5,0,3.8
					c0.1,1-0.5,0.9-1.2,0.9c-0.7,0-1-0.2-1-0.9C22.9,130.4,22.8,129.8,22.8,129.1z" />
            <path fill="#EE4124" d="M40.3,129.2c0,0.5-0.1,1,0,1.5c0.2,1.3-0.4,1.4-1.5,1.3c-0.5,0-0.7-0.2-0.7-0.7c0-1.5,0-3,0-4.5
					c0-0.9,0.6-0.7,1.1-0.7c0.5,0,1.1-0.2,1.1,0.7C40.2,127.6,40.3,128.4,40.3,129.2z" />
            <path fill="#EE4124" d="M32.5,146.3c0,0.5,0,1,0,1.6c0,0.7,0.1,1.3-1,1.3c-1.1,0-1.2-0.5-1.1-1.3c0-1.2,0.1-2.3,0-3.5
					c-0.1-0.9,0.5-0.8,1.1-0.8c0.6,0,1.1-0.1,1.1,0.8C32.4,145,32.5,145.6,32.5,146.3z" />
            <path fill="#EE4124" d="M32.5,112.3c0,0.5-0.1,1,0,1.4c0.3,1.4-0.6,1.3-1.5,1.3c-0.4,0-0.6-0.1-0.6-0.6c0-1.4,0-2.8,0-4.3
					c0-0.9,0.7-0.6,1.1-0.6c0.5,0,1.1-0.2,1,0.7C32.4,110.9,32.5,111.6,32.5,112.3z" />
            <path fill="#EE4124" d="M40.8,21.6c0-0.5,0-1,0-1.6c0-0.7,0-1.1,0.9-1.1c1,0,0.9,0.5,0.9,1.1c0,1.1,0,2.2,0,3.4
					c0,0.7-0.3,0.8-0.9,0.8c-0.6,0-1,0-1-0.8C40.9,22.8,40.8,22.2,40.8,21.6z" />
            <path fill="#EE4124" d="M21.8,21.6c0,0.4-0.1,0.9,0,1.3c0.2,1.3-0.4,1.4-1.4,1.4c-0.7,0-1-0.2-1-0.9c0.1-1,0-2,0-3
					c0-1.2,1-1.8,2.1-1.3c0.3,0.1,0.3,0.4,0.3,0.6C21.8,20.3,21.8,20.9,21.8,21.6z" />
            <path fill="#EE4124" d="M19.5,236.5c0-0.4,0.1-0.9,0-1.3c-0.1-1,0.2-1.2,1.2-1.2c1,0,1.3,0.2,1.2,1.2c-0.1,0.9,0,1.8,0,2.7
					c0,1.2-1,1.8-2.1,1.3c-0.5-0.2-0.3-0.7-0.3-1C19.4,237.6,19.5,237.1,19.5,236.5z" />
            <path fill="#EE4124" d="M42.7,236.7c0,0.5,0,1,0,1.6c0,0.6,0.1,1.1-0.8,1.1c-0.8,0-1.1-0.3-1-1c0.1-1.1,0.1-2.2,0-3.4
					c0-0.7,0.3-0.9,0.9-0.9c0.6,0,1,0.1,0.9,0.8C42.6,235.4,42.7,236,42.7,236.7z" />
          </g>
        </g>
      </g>
    </g>
  </g>
  <view id="sq" viewBox="0 0 15 15" />
  <view id="bg" viewBox="20 0 15 15" />
  <view id="zh" viewBox="40 0 15 15" />
  <view id="hr" viewBox="60 0 15 15" />
  <view id="cs" viewBox="80 0 15 15" />
  <view id="da" viewBox="100 0 15 15" />
  <view id="et" viewBox="120 0 15 15" />
  <view id="fi" viewBox="0 20 15 15" />
  <view id="fr" viewBox="20 20 15 15" />
  <view id="de" viewBox="40 20 15 15" />
  <view id="el" viewBox="60 20 15 15" />
  <view id="hu" viewBox="80 20 15 15" />
  <view id="it" viewBox="100 20 15 15" />
  <view id="ja" viewBox="120 20 15 15" />
  <view id="lv" viewBox="0 40 15 15" />
  <view id="lt" viewBox="20 40 15 15" />  
  <view id="nl" viewBox="40 40 15 15" />
  <view id="no" viewBox="60 40 15 15" />
  <view id="pl" viewBox="80 40 15 15" />
  <view id="pt" viewBox="100 40 15 15" />
  <view id="ro" viewBox="120 40 15 15" />
  <view id="ru" viewBox="0 60 15 15" />
  <view id="sr" viewBox="20 60 15 15" />
  <view id="sk" viewBox="40 60 15 15" />
  <view id="sl" viewBox="60 60 15 15" />
  <view id="ko" viewBox="80 60 15 15" />
  <view id="es" viewBox="100 60 15 15" />
  <view id="sv" viewBox="120 60 15 15" />
  <view id="th" viewBox="0 80 15 15" />
  <view id="tr" viewBox="20 80 15 15" />
  <view id="uk" viewBox="40 80 15 15" />
  <view id="en" viewBox="60 80 15 15" />
  <view id="vi" viewBox="80 80 15 15" />
  <view id="by" viewBox="100 80 15 15" />
</svg>