<svg width="17" height="17" viewBox="0 0 17 17" fill="none" xmlns="http://www.w3.org/2000/svg">
<path d="M4.27429 3.40586C4.27429 2.33933 5.13889 1.47473 6.20542 1.47473H13.9581C15.0246 1.47473 15.8892 2.33933 15.8892 3.40586V10.3643V12.1109C15.8892 12.6595 15.247 12.9567 14.8288 12.6016L12.7349 10.8234C12.3859 10.527 11.9429 10.3643 11.4849 10.3643H6.20542C5.13889 10.3643 4.27429 9.4997 4.27429 8.43316V3.40586Z" stroke="white" stroke-width="1.28742"/>
<path d="M3.89001 4.27765H2.60167C1.53514 4.27765 0.67054 5.14225 0.67054 6.20878V13.1672V14.9138C0.67054 15.4624 1.31278 15.7596 1.73092 15.4045L3.82481 13.6264C4.17386 13.3299 4.61689 13.1672 5.07482 13.1672H10.3543C11.4209 13.1672 12.2855 12.3026 12.2855 11.2361V10.5181" stroke="white" stroke-width="1.28742"/>
</svg>
